<svg width="17" height="16" viewBox="0 0 17 16" fill="none" xmlns="http://www.w3.org/2000/svg">
<mask id="mask0_1121_697" style="mask-type:luminance" maskUnits="userSpaceOnUse" x="0" y="0" width="17" height="16">
<path d="M16.4111 0H0.411133V16H16.4111V0Z" fill="white"/>
</mask>
<g mask="url(#mask0_1121_697)">
<path d="M6.4108 14.6666C6.77899 14.6666 7.07747 14.3681 7.07747 13.9999C7.07747 13.6317 6.77899 13.3333 6.4108 13.3333C6.04261 13.3333 5.74414 13.6317 5.74414 13.9999C5.74414 14.3681 6.04261 14.6666 6.4108 14.6666Z" stroke="white" stroke-width="1.33333" stroke-linecap="round" stroke-linejoin="round"/>
<path d="M13.7448 14.6666C14.1129 14.6666 14.4114 14.3681 14.4114 13.9999C14.4114 13.6317 14.1129 13.3333 13.7448 13.3333C13.3766 13.3333 13.0781 13.6317 13.0781 13.9999C13.0781 14.3681 13.3766 14.6666 13.7448 14.6666Z" stroke="white" stroke-width="1.33333" stroke-linecap="round" stroke-linejoin="round"/>
<path d="M1.07812 0.666748H3.74479L5.53146 9.59342C5.59242 9.90035 5.75939 10.1761 6.00315 10.3723C6.24691 10.5685 6.55192 10.6727 6.86479 10.6667H13.3448C13.6576 10.6727 13.9626 10.5685 14.2064 10.3723C14.4502 10.1761 14.6171 9.90035 14.6781 9.59342L15.7448 4.00008H4.41146" stroke="white" stroke-width="1.33333" stroke-linecap="round" stroke-linejoin="round"/>
</g>
</svg>
