<svg xmlns="http://www.w3.org/2000/svg" fill="none" viewBox="0 0 20 20" height="20" width="20">
<g clip-path="url(#clip0_1135_220)">
<circle fill="white" r="10" cy="10" cx="10"></circle>
<path fill="black" d="M10 20C4.48594 20 0 15.5141 0 10C0 4.48594 4.48594 0 10 0C15.5141 0 20 4.48594 20 10C20 15.5141 15.5141 20 10 20ZM10 1.42852C5.27375 1.42852 1.42852 5.27375 1.42852 10C1.42852 14.7262 5.27375 18.5715 10 18.5715C14.7262 18.5715 18.5715 14.7262 18.5715 10C18.5715 5.27375 14.7262 1.42852 10 1.42852Z"></path>
<path fill="black" d="M13.5715 14.2857C13.3887 14.2857 13.2059 14.216 13.0665 14.0764L5.92368 6.93358C5.64458 6.65448 5.64458 6.20253 5.92368 5.92362C6.20259 5.64468 6.6547 5.64452 6.93364 5.92362L14.0764 13.0664C14.3555 13.3455 14.3555 13.7975 14.0764 14.0764C14.0102 14.1428 13.9315 14.1955 13.8449 14.2315C13.7582 14.2674 13.6653 14.2859 13.5715 14.2857Z"></path>
<path fill="black" d="M6.42856 14.2858C6.24575 14.2858 6.06313 14.2161 5.92368 14.0764C5.64458 13.7975 5.64458 13.3454 5.92368 13.0665L13.0665 5.92368C13.3456 5.64458 13.7975 5.64458 14.0764 5.92368C14.3554 6.20259 14.3555 6.6547 14.0764 6.93364L6.93364 14.0764C6.86742 14.1429 6.7887 14.1956 6.70202 14.2316C6.61533 14.2675 6.5224 14.2859 6.42856 14.2858Z"></path>
</g>
<defs>
<clipPath id="clip0_1135_220">
<rect fill="white" height="20" width="20"></rect>
</clipPath>
</defs>
</svg>
