<svg width="60" height="60" viewBox="0 0 60 60" fill="none" xmlns="http://www.w3.org/2000/svg">
<path fill-rule="evenodd" clip-rule="evenodd" d="M30 0C13.4531 0 0 13.4531 0 30C0 46.5469 13.4531 60 30 60C46.5469 60 60 46.5469 60 30C60 13.4531 46.5469 0 30 0Z" fill="#4BAE4F"/>
<path fill-rule="evenodd" clip-rule="evenodd" d="M44.5078 19.8867C45.2344 20.6133 45.2344 21.8086 44.5078 22.5352L26.9297 40.1133C26.5664 40.4766 26.0859 40.6641 25.6055 40.6641C25.125 40.6641 24.6445 40.4766 24.2812 40.1133L15.4922 31.3242C14.7656 30.5977 14.7656 29.4023 15.4922 28.6758C16.2187 27.9492 17.4141 27.9492 18.1406 28.6758L25.6055 36.1406L41.8594 19.8867C42.5859 19.1484 43.7812 19.1484 44.5078 19.8867Z" fill="white"/>
</svg>
