<svg width="41" height="40" viewBox="0 0 41 40" fill="none" xmlns="http://www.w3.org/2000/svg">
<g opacity="0.8">
<path d="M20.4112 1.66663C16.7852 1.66663 13.2407 2.74186 10.2258 4.75635C7.21087 6.77084 4.86104 9.63412 3.47343 12.9841C2.08582 16.3341 1.72276 20.0203 2.43016 23.5766C3.13755 27.1329 4.88364 30.3996 7.4476 32.9636C10.0116 35.5275 13.2782 37.2736 16.8346 37.981C20.3909 38.6884 24.0771 38.3254 27.4271 36.9378C30.7771 35.5501 33.6403 33.2003 35.6548 30.1854C37.6693 27.1705 38.7446 23.626 38.7446 20C38.7388 15.1394 36.8054 10.4796 33.3685 7.04267C29.9316 3.60574 25.2718 1.67236 20.4112 1.66663ZM28.2562 17.0116L19.9229 25.345C19.6103 25.6574 19.1865 25.8329 18.7446 25.8329C18.3026 25.8329 17.8788 25.6574 17.5662 25.345L12.5662 20.345C12.407 20.1912 12.2801 20.0073 12.1927 19.804C12.1054 19.6006 12.0594 19.3819 12.0575 19.1606C12.0555 18.9393 12.0977 18.7199 12.1815 18.515C12.2653 18.3102 12.3891 18.1241 12.5456 17.9676C12.7021 17.8111 12.8881 17.6874 13.093 17.6036C13.2978 17.5198 13.5173 17.4776 13.7386 17.4795C13.9599 17.4815 14.1786 17.5274 14.3819 17.6148C14.5852 17.7021 14.7691 17.8291 14.9229 17.9883L18.7446 21.81L25.8996 14.655C26.2139 14.3514 26.6349 14.1834 27.0719 14.1872C27.5089 14.191 27.9269 14.3662 28.2359 14.6753C28.5449 14.9843 28.7202 15.4023 28.724 15.8393C28.7278 16.2763 28.5598 16.6973 28.2562 17.0116Z" fill="#787878"/>
</g>
</svg>
