<svg width="51" height="50" viewBox="0 0 51 50" fill="none" xmlns="http://www.w3.org/2000/svg">
<g clip-path="url(#clip0_1121_755)">
<path fill-rule="evenodd" clip-rule="evenodd" d="M25.4111 0C11.6221 0 0.411133 11.2109 0.411133 25C0.411133 38.7891 11.6221 50 25.4111 50C39.2002 50 50.4111 38.7891 50.4111 25C50.4111 11.2109 39.2002 0 25.4111 0Z" fill="#4BAE4F"/>
<path fill-rule="evenodd" clip-rule="evenodd" d="M37.501 16.5723C38.1064 17.1777 38.1064 18.1738 37.501 18.7793L22.8525 33.4277C22.5498 33.7305 22.1494 33.8867 21.749 33.8867C21.3486 33.8867 20.9482 33.7305 20.6455 33.4277L13.3213 26.1035C12.7158 25.498 12.7158 24.502 13.3213 23.8965C13.9268 23.291 14.9229 23.291 15.5283 23.8965L21.749 30.1172L35.2939 16.5723C35.8994 15.957 36.8955 15.957 37.501 16.5723Z" fill="white"/>
</g>
<defs>
<clipPath id="clip0_1121_755">
<rect width="50" height="50" fill="white" transform="translate(0.411133)"/>
</clipPath>
</defs>
</svg>
