<svg width="41" height="40" viewBox="0 0 41 40" fill="none" xmlns="http://www.w3.org/2000/svg">
<g clip-path="url(#clip0_1121_773)">
<path d="M34.5525 5.85859C30.7731 2.07912 25.7563 0 20.4111 0C15.066 0 10.0492 2.07912 6.26972 5.85859C2.49026 9.63805 0.411133 14.6549 0.411133 20C0.411133 25.3451 2.49026 30.362 6.26972 34.1414C10.0492 37.9209 15.066 40 20.4111 40C25.7563 40 30.7731 37.9209 34.5525 34.1414C38.332 30.362 40.4111 25.3451 40.4111 20C40.4111 14.6549 38.332 9.63805 34.5525 5.85859ZM32.9448 32.5337C29.5946 35.8838 25.1418 37.7273 20.4111 37.7273C15.6805 37.7273 11.2276 35.8838 7.87746 32.5337C0.966688 25.6229 0.966688 14.3771 7.87746 7.46633C11.2276 4.11616 15.6805 2.27273 20.4111 2.27273C25.1418 2.27273 29.5946 4.11616 32.9448 7.46633C39.8556 14.3771 39.8556 25.6229 32.9448 32.5337Z" fill="#4C4C4C"/>
<path d="M29.2243 11.1869C28.7782 10.7408 28.0627 10.7408 27.6165 11.1869L20.4112 18.3923L13.2058 11.1869C12.7596 10.7408 12.0442 10.7408 11.598 11.1869C11.1519 11.633 11.1519 12.3485 11.598 12.7946L18.8034 20L11.598 27.2054C11.1519 27.6515 11.1519 28.367 11.598 28.8132C11.8169 29.032 12.1115 29.1499 12.3977 29.1499C12.6839 29.1499 12.9785 29.0404 13.1974 28.8132L20.4027 21.6078L27.6081 28.8132C27.827 29.032 28.1216 29.1499 28.4078 29.1499C28.7024 29.1499 28.9886 29.0404 29.2075 28.8132C29.6536 28.367 29.6536 27.6515 29.2075 27.2054L22.0189 20L29.2243 12.7946C29.6704 12.3485 29.6704 11.633 29.2243 11.1869Z" fill="#4C4C4C"/>
</g>
<defs>
<clipPath id="clip0_1121_773">
<rect width="40" height="40" fill="white" transform="translate(0.411133)"/>
</clipPath>
</defs>
</svg>
