<svg width="21" height="20" viewBox="0 0 21 20" fill="none" xmlns="http://www.w3.org/2000/svg">
<g clip-path="url(#clip0_1121_667)">
<path d="M19.2243 12.4136C18.0609 11.2503 16.3454 10.968 14.9136 11.566V4.66851C14.9136 4.38311 14.8025 4.1148 14.6007 3.91302L11.001 0.312873C10.9169 0.229076 10.8193 0.159928 10.7123 0.108284L10.7116 0.107933C10.7068 0.105553 10.7019 0.103133 10.697 0.10087C10.6876 0.0962721 10.6781 0.0920671 10.6684 0.0882663C10.5348 0.0303765 10.3908 0.000342626 10.2451 0L1.57264 0C0.949974 0 0.443359 0.506575 0.443359 1.12928V18.8707C0.443359 19.4934 0.949934 20 1.5726 20H13.7843C14.3806 20 14.8758 19.5338 14.9117 18.9387C14.9122 18.9309 14.9125 18.9231 14.9125 18.9152V18.8343C15.3956 19.0361 15.9139 19.1399 16.4374 19.1397C17.4467 19.1397 18.4559 18.7555 19.2243 17.9872C19.9686 17.2428 20.3786 16.2531 20.3786 15.2004C20.3786 14.1477 19.9686 13.158 19.2243 12.4136ZM13.5814 3.99731H11.0028C10.9799 3.99728 10.9579 3.98817 10.9417 3.97198C10.9256 3.95579 10.9164 3.93385 10.9164 3.91095V1.33207L13.5814 3.99731ZM14.132 18.9013C14.1163 19.0805 13.9654 19.2196 13.7844 19.2196H1.57264C1.38026 19.2196 1.22383 19.0631 1.22383 18.8707V1.12928C1.22383 0.936902 1.3803 0.780427 1.57264 0.780427H10.136V3.91095C10.136 4.38889 10.5249 4.77773 11.0028 4.77773H14.1333V12.0029C13.9616 12.1267 13.8003 12.264 13.6506 12.4136C12.9063 13.158 12.4963 14.1477 12.4963 15.2005C12.4963 16.2532 12.9063 17.2429 13.6506 17.9873C13.7999 18.1365 13.9609 18.2736 14.1321 18.3971V18.9013H14.132ZM18.6724 17.4354C17.44 18.6678 15.4348 18.6678 14.2024 17.4354C13.6055 16.8384 13.2767 16.0447 13.2767 15.2005C13.2767 14.3562 13.6055 13.5625 14.2024 12.9655C14.8186 12.3493 15.628 12.0412 16.4374 12.0412C17.2468 12.0412 18.0562 12.3493 18.6723 12.9655C19.2693 13.5625 19.5981 14.3562 19.5981 15.2005C19.5981 16.0447 19.2694 16.8384 18.6724 17.4354Z" fill="#1C1D1D"/>
<path d="M3.19291 6.21915H8.63299C8.84847 6.21915 9.0232 6.04445 9.0232 5.82893C9.0232 5.61342 8.84847 5.43872 8.63299 5.43872H3.19291C2.97743 5.43872 2.80269 5.61342 2.80269 5.82893C2.80269 6.04445 2.97739 6.21915 3.19291 6.21915ZM9.9898 12.4594H3.19291C2.97743 12.4594 2.80269 12.6341 2.80269 12.8496C2.80269 13.0651 2.97743 13.2398 3.19291 13.2398H9.98984C10.2053 13.2398 10.3801 13.0651 10.3801 12.8496C10.3801 12.6341 10.2053 12.4594 9.9898 12.4594ZM9.9898 14.7996H3.19291C2.97743 14.7996 2.80269 14.9743 2.80269 15.1898C2.80269 15.4053 2.97743 15.58 3.19291 15.58H9.98984C10.2053 15.58 10.3801 15.4053 10.3801 15.1898C10.3801 14.9743 10.2053 14.7996 9.9898 14.7996ZM12.1839 10.1192H3.19291C2.97743 10.1192 2.80269 10.2939 2.80269 10.5094C2.80269 10.7249 2.97743 10.8996 3.19291 10.8996H12.1839C12.3994 10.8996 12.5741 10.7249 12.5741 10.5094C12.5741 10.2939 12.3994 10.1192 12.1839 10.1192ZM3.15389 8.58462H10.1938C10.4093 8.58462 10.5841 8.40992 10.5841 8.19441C10.5841 7.97889 10.4093 7.80419 10.1938 7.80419H3.15389C2.93841 7.80419 2.76367 7.97889 2.76367 8.19441C2.76367 8.40992 2.93837 8.58462 3.15389 8.58462Z" fill="#1C1D1D"/>
<path d="M12.136 8.58477C12.3516 8.58477 12.5264 8.40998 12.5264 8.19436C12.5264 7.97875 12.3516 7.80396 12.136 7.80396C11.9204 7.80396 11.7456 7.97875 11.7456 8.19436C11.7456 8.40998 11.9204 8.58477 12.136 8.58477Z" fill="#1C1D1D"/>
<path d="M17.8175 13.8206C17.6651 13.6682 17.4181 13.6682 17.2656 13.8206L16.4376 14.6486L15.6226 13.8336C15.4702 13.6812 15.2231 13.6812 15.0707 13.8336C14.9183 13.986 14.9183 14.2331 15.0707 14.3855L15.8857 15.2004L15.0576 16.0284C14.9053 16.1808 14.9053 16.4279 15.0576 16.5803C15.1339 16.6565 15.2337 16.6946 15.3336 16.6946C15.4334 16.6946 15.5333 16.6565 15.6095 16.5803L16.4375 15.7523L17.2525 16.5673C17.3287 16.6435 17.4285 16.6815 17.5284 16.6815C17.6283 16.6815 17.7281 16.6434 17.8043 16.5673C17.9567 16.4149 17.9567 16.1678 17.8043 16.0154L16.9894 15.2005L17.8174 14.3725C17.9699 14.22 17.9699 13.973 17.8175 13.8206Z" fill="#1C1D1D"/>
</g>
<defs>
<clipPath id="clip0_1121_667">
<rect width="20" height="20" fill="white" transform="translate(0.411133)"/>
</clipPath>
</defs>
</svg>
