<svg width="41" height="40" viewBox="0 0 41 40" fill="none" xmlns="http://www.w3.org/2000/svg">
<path fill-rule="evenodd" clip-rule="evenodd" d="M22.45 1.44981L24.4998 2.98411C25.0604 3.40372 25.6505 3.61849 26.3496 3.65739L28.906 3.79958C30.4368 3.88474 31.68 4.92794 32.0297 6.42067L32.6137 8.91356C32.7733 9.59536 33.0873 10.1392 33.5979 10.6183L35.4648 12.3706C36.5827 13.4197 36.8645 15.018 36.1729 16.3863L35.0178 18.6714C34.7019 19.2963 34.5929 19.9147 34.676 20.61L34.9799 23.1523C35.1619 24.6746 34.3504 26.08 32.9411 26.6836L30.5874 27.6916C29.9437 27.9673 29.4626 28.3709 29.0794 28.957L27.678 31.0998C26.839 32.3829 25.3139 32.9379 23.8463 32.4944L21.3954 31.7537C20.7251 31.5511 20.0972 31.5511 19.4269 31.7537L16.9759 32.4944C15.5083 32.9379 13.9833 32.3829 13.1442 31.0998L11.7428 28.957C11.3595 28.3709 10.8785 27.9673 10.2348 27.6917L7.88124 26.6836C6.47194 26.08 5.66045 24.6745 5.84241 23.1522L6.14631 20.6099C6.22936 19.9146 6.12038 19.2962 5.80444 18.6713L4.64936 16.3862C3.95772 15.018 4.2396 13.4197 5.35741 12.3705L7.22436 10.6183C7.73491 10.139 8.04889 9.59528 8.20858 8.91349L8.79256 6.4206C9.14225 4.92786 10.3855 3.88466 11.9162 3.7995L14.4726 3.65731C15.1719 3.61841 15.7619 3.40364 16.3225 2.98403L18.3723 1.44974C19.5997 0.531064 21.2226 0.531064 22.45 1.44981ZM19.1037 17.5811L16.8792 15.3567C16.3026 14.7802 15.3675 14.7802 14.7909 15.3567C14.2144 15.9333 14.2144 16.8684 14.7909 17.4449L18.0627 20.7166C18.6392 21.2931 19.5744 21.2931 20.1509 20.7166C22.123 18.7445 24.0727 16.7503 26.0356 14.7691C26.608 14.1915 26.6062 13.2593 26.0292 12.6855C25.4522 12.1116 24.5173 12.1133 23.9444 12.692L19.1037 17.5811ZM20.4112 5.61966C17.3507 5.61966 14.5798 6.86021 12.574 8.86591C10.5683 10.8716 9.3278 13.6425 9.3278 16.7029C9.3278 19.7634 10.5684 22.5343 12.574 24.54C14.5798 26.5457 17.3506 27.7862 20.4112 27.7862C23.4716 27.7862 26.2426 26.5456 28.2482 24.54C30.2539 22.5343 31.4944 19.7634 31.4944 16.7029C31.4944 13.6424 30.2539 10.8716 28.2482 8.86591C26.2426 6.86028 23.4717 5.61966 20.4112 5.61966ZM27.3644 9.74974C25.585 7.97028 23.1266 6.86966 20.4112 6.86966C17.6957 6.86966 15.2373 7.97028 13.4579 9.74974C11.6784 11.5292 10.5778 13.9875 10.5778 16.703C10.5778 19.4185 11.6784 21.8768 13.4579 23.6563C15.2373 25.4358 17.6957 26.5364 20.4112 26.5364C23.1266 26.5364 25.585 25.4358 27.3644 23.6563C29.1439 21.8768 30.2445 19.4185 30.2445 16.703C30.2445 13.9875 29.1439 11.5292 27.3644 9.74974ZM24.5758 33.8858L27.0051 39.1036C27.0429 39.1848 27.1175 39.2348 27.2069 39.2389C27.2964 39.2429 27.3752 39.2 27.4202 39.1225L29.232 36.0045L32.7844 36.6252C32.8726 36.6406 32.9563 36.608 33.0108 36.5369C33.0652 36.4658 33.0751 36.3766 33.0373 36.2954L30.0167 29.8075L28.7242 31.7839C27.7913 33.2104 26.2115 33.9825 24.5758 33.8858ZM16.3403 33.8793C14.6714 34.0117 13.0489 33.2375 12.0982 31.7839L10.8587 29.8886L7.87584 36.2954C7.85718 36.3341 7.84977 36.3773 7.85445 36.42C7.85913 36.4627 7.87572 36.5032 7.90233 36.5369C7.928 36.5714 7.96283 36.5979 8.00284 36.6135C8.04286 36.6291 8.08645 36.6332 8.12866 36.6252L11.6811 36.0045L13.493 39.1225C13.538 39.1999 13.6168 39.2429 13.7062 39.2388C13.7957 39.2347 13.8703 39.1848 13.9081 39.1036L16.3403 33.8793Z" fill="#009B48"/>
</svg>
