<svg width="26" height="25" viewBox="0 0 26 25" fill="none" xmlns="http://www.w3.org/2000/svg">
<g clip-path="url(#clip0_1121_706)">
<path d="M25.2415 11.7223L18.9915 4.10078C18.9113 3.9948 18.8037 3.9076 18.6779 3.84655C18.5519 3.78549 18.4115 3.75238 18.2683 3.75H1.30399C1.06719 3.75 0.840087 3.83399 0.672644 3.9835C0.505202 4.13301 0.411133 4.33579 0.411133 4.54723V18.1002C0.411133 18.3116 0.505202 18.5144 0.672644 18.6638C0.840087 18.8134 1.06719 18.8974 1.30399 18.8974H3.2147C3.42031 19.573 3.86917 20.1692 4.49203 20.5945C5.11487 21.0197 5.87711 21.25 6.66113 21.25C7.44516 21.25 8.20739 21.0197 8.83024 20.5945C9.45309 20.1692 9.90195 19.573 10.1076 18.8974H15.7146C15.9204 19.573 16.3692 20.1692 16.992 20.5945C17.6149 21.0197 18.3771 21.25 19.1611 21.25C19.9452 21.25 20.7074 21.0197 21.3302 20.5945C21.9531 20.1692 22.4019 19.573 22.6076 18.8974H24.5183C24.755 18.8974 24.9822 18.8134 25.1496 18.6638C25.3171 18.5144 25.4111 18.3116 25.4111 18.1002V12.1688C25.4063 12.0081 25.3471 11.8525 25.2415 11.7223ZM16.4826 5.34446H17.813L22.3933 10.9251H16.4826V5.34446ZM6.66113 19.6946C6.30795 19.6946 5.9627 19.6012 5.66904 19.4259C5.37538 19.2507 5.14651 19.0016 5.01135 18.7103C4.8762 18.4189 4.84083 18.0984 4.90973 17.7891C4.97863 17.4798 5.1487 17.1957 5.39844 16.9727C5.64818 16.7497 5.96637 16.5979 6.31276 16.5363C6.65915 16.4748 7.0182 16.5064 7.3445 16.6271C7.67079 16.7477 7.94968 16.9521 8.1459 17.2143C8.34212 17.4765 8.44685 17.7849 8.44685 18.1002C8.44685 18.5231 8.2587 18.9286 7.92382 19.2276C7.58894 19.5266 7.13473 19.6946 6.66113 19.6946ZM19.1611 19.6946C18.808 19.6946 18.4627 19.6012 18.1691 19.4259C17.8754 19.2507 17.6465 19.0016 17.5114 18.7103C17.3762 18.4189 17.3409 18.0984 17.4097 17.7891C17.4787 17.4798 17.6487 17.1957 17.8984 16.9727C18.1481 16.7497 18.4663 16.5979 18.8128 16.5363C19.1592 16.4748 19.5181 16.5064 19.8445 16.6271C20.1707 16.7477 20.4497 16.9521 20.6459 17.2143C20.8422 17.4765 20.9468 17.7849 20.9468 18.1002C20.9468 18.5231 20.7587 18.9286 20.4239 19.2276C20.0889 19.5266 19.6348 19.6946 19.1611 19.6946ZM23.6254 17.3029H22.6076C22.4019 16.6273 21.9531 16.0311 21.3302 15.6058C20.7074 15.1807 19.9452 14.9503 19.1611 14.9503C18.3771 14.9503 17.6149 15.1807 16.992 15.6058C16.3692 16.0311 15.9204 16.6273 15.7146 17.3029H10.1076C9.90195 16.6273 9.45309 16.0311 8.83024 15.6058C8.20739 15.1807 7.44516 14.9503 6.66113 14.9503C5.87711 14.9503 5.11487 15.1807 4.49203 15.6058C3.86917 16.0311 3.42031 16.6273 3.2147 17.3029H2.19685V5.34446H14.6968V12.5195H23.6254V17.3029Z" fill="#009B48"/>
</g>
<defs>
<clipPath id="clip0_1121_706">
<rect width="25" height="25" fill="white" transform="translate(0.411133)"/>
</clipPath>
</defs>
</svg>
