<svg width="21" height="20" viewBox="0 0 21 20" fill="none" xmlns="http://www.w3.org/2000/svg">
<g clip-path="url(#clip0_1121_663)">
<path d="M17.9474 12.4881C17.686 12.4881 17.4742 12.7111 17.4742 12.9862V17.4088C17.4733 18.2338 16.8383 18.9023 16.0546 18.9031H2.77713C1.99337 18.9023 1.35848 18.2338 1.35753 17.4088V4.42875C1.35848 3.60394 1.99342 2.93544 2.77713 2.93444H6.97866C7.24001 2.93444 7.45186 2.71144 7.45186 2.43634C7.45186 2.16138 7.24001 1.93823 6.97866 1.93823H2.77713C1.471 1.93978 0.4126 3.05388 0.411133 4.42875V17.409C0.4126 18.7838 1.471 19.898 2.77713 19.8995H16.0546C17.3607 19.898 18.4192 18.7838 18.4206 17.409V12.9862C18.4206 12.7111 18.2088 12.4881 17.9474 12.4881Z" fill="#1C1D1D"/>
<path d="M18.2333 0.656525C17.4017 -0.218842 16.0534 -0.218842 15.2219 0.656525L6.7796 9.54304C6.72181 9.60386 6.67998 9.6794 6.65818 9.76231L5.54801 13.9812C5.5256 14.0662 5.52502 14.1559 5.54632 14.2411C5.56763 14.3264 5.61005 14.4042 5.66926 14.4665C5.72847 14.5289 5.80235 14.5735 5.88334 14.596C5.96432 14.6184 6.04952 14.6179 6.13023 14.5943L10.1382 13.4255C10.217 13.4026 10.2887 13.3585 10.3465 13.2977L18.7885 4.41103C19.6188 3.53502 19.6188 2.11701 18.7885 1.24105L18.2333 0.656525ZM7.81065 9.86681L14.72 2.5937L16.9483 4.93927L10.0388 12.2124L7.81065 9.86681ZM7.36556 10.807L9.14574 12.6811L6.68331 13.3993L7.36556 10.807ZM18.1194 3.70666L17.6176 4.23485L15.3891 1.88908L15.8911 1.36084C16.3531 0.874595 17.1021 0.874595 17.564 1.36084L18.1194 1.94532C18.5806 2.43216 18.5806 3.22002 18.1194 3.70666Z" fill="#1C1D1D"/>
</g>
<defs>
<clipPath id="clip0_1121_663">
<rect width="20" height="20" fill="white" transform="translate(0.411133)"/>
</clipPath>
</defs>
</svg>
