<svg width="29" height="29" viewBox="0 0 29 29" fill="none" xmlns="http://www.w3.org/2000/svg">
<path d="M10.9108 26.4666C11.5552 26.4666 12.0775 25.9443 12.0775 25.2999C12.0775 24.6556 11.5552 24.1333 10.9108 24.1333C10.2665 24.1333 9.74414 24.6556 9.74414 25.2999C9.74414 25.9443 10.2665 26.4666 10.9108 26.4666Z" stroke="#141414" stroke-width="1.5" stroke-linecap="round" stroke-linejoin="round"/>
<path d="M23.7443 26.4666C24.3886 26.4666 24.911 25.9443 24.911 25.2999C24.911 24.6556 24.3886 24.1333 23.7443 24.1333C23.1 24.1333 22.5776 24.6556 22.5776 25.2999C22.5776 25.9443 23.1 26.4666 23.7443 26.4666Z" stroke="#141414" stroke-width="1.5" stroke-linecap="round" stroke-linejoin="round"/>
<path d="M1.57812 1.9668H6.24478L9.37146 17.5884C9.47815 18.1255 9.77035 18.608 10.1969 18.9514C10.6235 19.2948 11.1573 19.4772 11.7048 19.4667H23.0448C23.5923 19.4772 24.1261 19.2948 24.5527 18.9514C24.9793 18.608 25.2715 18.1255 25.3781 17.5884L27.2448 7.80013H7.41146" stroke="#141414" stroke-width="1.5" stroke-linecap="round" stroke-linejoin="round"/>
</svg>
