<svg width="29" height="22" viewBox="0 0 29 22" fill="none" xmlns="http://www.w3.org/2000/svg">
<path d="M23.4252 1.55029H5.70378C3.12645 1.55029 1.03711 3.63963 1.03711 6.21696V15.759C1.03711 18.3363 3.12645 20.4257 5.70378 20.4257H23.4252C26.0025 20.4257 28.0918 18.3363 28.0918 15.759V6.21696C28.0918 3.63963 26.0025 1.55029 23.4252 1.55029Z" fill="white"/>
<path fill-rule="evenodd" clip-rule="evenodd" d="M9.25041 14.337H7.61141L6.38237 9.56636C6.32403 9.34691 6.20017 9.1529 6.01797 9.06146C5.56327 8.83168 5.06222 8.64881 4.51562 8.55658V8.37291H7.15591C7.52031 8.37291 7.79361 8.64881 7.83916 8.96923L8.47686 12.4105L10.115 8.37291H11.7085L9.25041 14.337ZM12.6195 14.337H11.0716L12.3461 8.37291H13.8941L12.6195 14.337ZM15.8966 10.0251C15.9422 9.70392 16.2156 9.52025 16.5344 9.52025C17.0354 9.47414 17.5812 9.56637 18.0367 9.79536L18.31 8.51125C17.8545 8.32758 17.3535 8.23535 16.8988 8.23535C15.3965 8.23535 14.3032 9.06147 14.3032 10.208C14.3032 11.0803 15.0775 11.5382 15.6242 11.8142C16.2156 12.0892 16.4433 12.2729 16.3977 12.5481C16.3977 12.9607 15.9422 13.1444 15.4876 13.1444C14.9409 13.1444 14.3943 13.0068 13.8941 12.777L13.6208 14.0619C14.1674 14.2909 14.7587 14.3832 15.3054 14.3832C16.9898 14.4284 18.0367 13.6031 18.0367 12.3644C18.0367 10.8043 15.8966 10.7129 15.8966 10.0251ZM23.4539 14.337L22.2249 8.37291H20.9047C20.6314 8.37291 20.3582 8.55658 20.2671 8.83168L17.9911 14.337H19.5846L19.9027 13.4656H21.8605L22.0427 14.337H23.4539ZM21.1325 9.97903L21.5872 12.2268H20.3126L21.1325 9.97903Z" fill="#172B85"/>
</svg>
