<svg width="41" height="29" viewBox="0 0 41 29" fill="none" xmlns="http://www.w3.org/2000/svg">
<path d="M33.2886 1.15372H7.97233C4.29043 1.15372 1.30566 4.10457 1.30566 7.74463V21.2212C1.30566 24.8612 4.29043 27.8121 7.97233 27.8121H33.2886C36.9705 27.8121 39.9553 24.8612 39.9553 21.2212V7.74463C39.9553 4.10457 36.9705 1.15372 33.2886 1.15372Z" fill="white"/>
<path fill-rule="evenodd" clip-rule="evenodd" d="M13.0384 19.2129H10.697L8.94119 12.4752C8.85785 12.1652 8.68091 11.8912 8.42061 11.7621C7.77105 11.4376 7.05527 11.1793 6.27441 11.049V10.7896H10.0463C10.5668 10.7896 10.9573 11.1793 11.0223 11.6318L11.9333 16.492L14.2735 10.7896H16.5499L13.0384 19.2129ZM17.8514 19.2129H15.6401L17.4609 10.7896H19.6722L17.8514 19.2129ZM22.533 13.1231C22.5981 12.6695 22.9886 12.4101 23.4441 12.4101C24.1598 12.3449 24.9395 12.4752 25.5902 12.7986L25.9807 10.985C25.3299 10.7256 24.6142 10.5953 23.9646 10.5953C21.8185 10.5953 20.2567 11.7621 20.2567 13.3814C20.2567 14.6134 21.3629 15.2601 22.1438 15.6499C22.9886 16.0383 23.3139 16.2977 23.2489 16.6863C23.2489 17.2691 22.5981 17.5285 21.9486 17.5285C21.1677 17.5285 20.3869 17.3342 19.6722 17.0097L19.2818 18.8244C20.0626 19.1478 20.9074 19.2781 21.6883 19.2781C24.0947 19.3421 25.5902 18.1764 25.5902 16.4269C25.5902 14.2236 22.533 14.0945 22.533 13.1231ZM33.3291 19.2129L31.5734 10.7896H29.6874C29.297 10.7896 28.9066 11.049 28.7765 11.4375L25.5251 19.2129H27.8015L28.2559 17.9822H31.0529L31.3131 19.2129H33.3291ZM30.0129 13.058L30.6623 16.2326H28.8415L30.0129 13.058Z" fill="#172B85"/>
</svg>
