<svg width="29" height="22" viewBox="0 0 29 22" fill="none" xmlns="http://www.w3.org/2000/svg">
<path d="M23.1122 1.55029H5.39079C2.81346 1.55029 0.724121 3.63963 0.724121 6.21696V15.759C0.724121 18.3363 2.81346 20.4257 5.39079 20.4257H23.1122C25.6895 20.4257 27.7788 18.3363 27.7788 15.759V6.21696C27.7788 3.63963 25.6895 1.55029 23.1122 1.55029Z" fill="white"/>
<path d="M12.1133 20.0324L27.3799 15.5103C27.3799 18.0078 25.3552 20.0324 22.8576 20.0324H12.1133Z" fill="#EF8A1E"/>
<path fill-rule="evenodd" clip-rule="evenodd" d="M24.4823 9.10891C25.3222 9.10891 25.7842 9.48921 25.7842 10.2076C25.8262 10.7568 25.4482 11.2216 24.9443 11.3062L26.0781 12.8696H25.1963L24.2304 11.3485H24.1464V12.8696H23.4325V9.10891H24.4823ZM24.1464 10.8414H24.3564C24.8183 10.8414 25.0283 10.6301 25.0283 10.2497C25.0283 9.91175 24.8183 9.70048 24.3564 9.70048H24.1464V10.8414ZM20.9548 12.8696H22.9705V12.2358H21.6687V11.2216H22.9285V10.5878H21.6687V9.74273H22.9705V9.10891H20.9548V12.8696ZM18.8551 11.6442L17.8892 9.10891H17.1333L18.6871 12.9541H19.065L20.6188 9.10891H19.8629L18.8551 11.6442ZM10.3301 11.0104C10.3301 12.0668 11.1699 12.9541 12.2198 12.9541C12.5558 12.9541 12.8497 12.8696 13.1437 12.7429V11.8977C12.9337 12.1512 12.6398 12.3202 12.3038 12.3202C11.6319 12.3202 11.086 11.8133 11.086 11.1372V11.0526C11.044 10.3766 11.5899 9.78499 12.2618 9.74273C12.5978 9.74273 12.9337 9.91175 13.1437 10.1653V9.32018C12.8917 9.15116 12.5558 9.10891 12.2618 9.10891C11.1699 9.0244 10.3301 9.91175 10.3301 11.0104ZM9.02821 10.5456C8.60827 10.3766 8.48228 10.292 8.48228 10.0808C8.52428 9.82724 8.73425 9.61596 8.98622 9.65822C9.19619 9.65822 9.40616 9.78499 9.57415 9.95401L9.9521 9.44695C9.65814 9.19341 9.28018 9.0244 8.90223 9.0244C8.3143 8.98215 7.81036 9.44695 7.76836 10.0385V10.0808C7.76836 10.5878 7.97834 10.8836 8.65026 11.0949C8.81824 11.1372 8.98622 11.2216 9.1542 11.3062C9.28018 11.3906 9.36417 11.5174 9.36417 11.6864C9.36417 11.9822 9.1122 12.2358 8.86023 12.2358H8.81824C8.48228 12.2358 8.18831 12.0245 8.06233 11.7287L7.60039 12.1935C7.85235 12.6583 8.3563 12.9119 8.86023 12.9119C9.53216 12.9541 10.0781 12.4471 10.1201 11.771V11.6442C10.0781 11.1372 9.8681 10.8836 9.02821 10.5456ZM6.5925 12.8696H7.30642V9.10891H6.5925V12.8696ZM3.2749 9.10891H4.32478H4.53475C5.54263 9.15117 6.34054 9.99627 6.29854 11.0104C6.29854 11.5597 6.04657 12.0668 5.62662 12.4471C5.24867 12.7429 4.78673 12.9119 4.32478 12.8696H3.2749V9.10891ZM4.19879 12.2358C4.53474 12.2781 4.91271 12.1512 5.16467 11.94C5.41664 11.6864 5.54263 11.3485 5.54263 10.9681C5.54263 10.6301 5.41664 10.292 5.16467 10.0385C4.91271 9.82724 4.53474 9.70048 4.19879 9.74274H3.98881V12.2358H4.19879Z" fill="#141414"/>
<path fill-rule="evenodd" clip-rule="evenodd" d="M15.2857 9.02173C14.2359 9.02173 13.354 9.86682 13.354 10.9654C13.354 12.0219 14.1939 12.9092 15.2857 12.9515C16.3776 12.9936 17.2175 12.1063 17.2595 11.0077C17.2175 9.90909 16.3776 9.02173 15.2857 9.02173Z" fill="#EF8A1E"/>
</svg>
