<svg width="41" height="29" viewBox="0 0 41 29" fill="none" xmlns="http://www.w3.org/2000/svg">
<path d="M32.7243 1.15372H8.3068C4.62491 1.15372 1.64014 4.10457 1.64014 7.74463V21.2212C1.64014 24.8612 4.62491 27.8121 8.3068 27.8121H32.7243C36.4062 27.8121 39.3909 24.8612 39.3909 21.2212V7.74463C39.3909 4.10457 36.4062 1.15372 32.7243 1.15372Z" fill="white"/>
<path fill-rule="evenodd" clip-rule="evenodd" d="M10.6429 11.0763C11.1499 11.1204 11.6569 10.8121 11.9737 10.4212C12.2853 10.0193 12.4913 9.47979 12.4385 8.92926C11.9896 8.95127 11.4351 9.23756 11.1182 9.63944C10.8277 9.98627 10.5795 10.5478 10.6429 11.0763ZM16.6738 18.1672V9.58438H19.7633C21.3582 9.58438 22.4725 10.7295 22.4725 12.4031C22.4725 14.0767 21.337 15.2328 19.721 15.2328H17.952V18.1672H16.6738ZM12.4331 11.1809C11.9865 11.1541 11.579 11.3209 11.2498 11.4557C11.0379 11.5424 10.8586 11.6158 10.7221 11.6158C10.5689 11.6158 10.3821 11.5385 10.1724 11.4516C9.89759 11.3378 9.5834 11.2077 9.25392 11.2139C8.49874 11.225 7.79635 11.6709 7.41083 12.3811C6.61867 13.8015 7.20487 15.9045 7.97063 17.0606C8.34558 17.6332 8.79447 18.2608 9.38595 18.2387C9.64618 18.2285 9.83335 18.1457 10.0271 18.06C10.2501 17.9613 10.4818 17.8588 10.8435 17.8588C11.1928 17.8588 11.4143 17.9586 11.627 18.0545C11.8292 18.1456 12.0234 18.2331 12.3117 18.2277C12.9243 18.2167 13.3098 17.6552 13.6847 17.0826C14.0894 16.4682 14.2672 15.8684 14.2942 15.7773L14.2974 15.7669C14.2974 15.7669 14.2917 15.7637 14.2829 15.7595C14.1476 15.6951 13.1137 15.2017 13.1038 13.8785C13.0939 12.768 13.9239 12.2053 14.0545 12.1167C14.0625 12.1113 14.0678 12.1077 14.0703 12.1058C13.5422 11.291 12.7183 11.2029 12.4331 11.1809ZM24.8068 18.2332C25.6096 18.2332 26.3541 17.8093 26.6921 17.1377H26.7185V18.1672H27.9016V13.8951C27.9016 12.6563 26.9509 11.8581 25.4881 11.8581C24.1308 11.8581 23.1274 12.6673 23.0905 13.7795H24.2417C24.3368 13.2509 24.8068 12.9041 25.451 12.9041C26.2326 12.9041 26.671 13.284 26.671 13.9831V14.4566L25.0761 14.5556C23.5921 14.6492 22.7894 15.2823 22.7894 16.3834C22.7894 17.4956 23.6185 18.2332 24.8068 18.2332ZM25.15 17.2148C24.4688 17.2148 24.0357 16.8734 24.0357 16.3505C24.0357 15.8109 24.4529 15.4971 25.2504 15.4475L26.6709 15.3539V15.8385C26.6709 16.6422 26.0161 17.2148 25.15 17.2148ZM31.8253 18.5029C31.313 20.0059 30.7269 20.5014 29.4805 20.5014C29.3854 20.5014 29.0686 20.4903 28.9946 20.4683V19.4388C29.0738 19.4499 29.2693 19.4608 29.3696 19.4608C29.9346 19.4608 30.2516 19.2131 30.4469 18.5691L30.5632 18.1892L28.3978 11.9407H29.734L31.2392 17.011H31.2656L32.7706 11.9407H34.0697L31.8253 18.5029ZM17.9518 10.7075H19.4252C20.5342 10.7075 21.168 11.3241 21.168 12.4086C21.168 13.4932 20.5342 14.1152 19.42 14.1152H17.9518V10.7075Z" fill="#141414"/>
</svg>
