<svg width="29" height="22" viewBox="0 0 29 22" fill="none" xmlns="http://www.w3.org/2000/svg">
<path d="M22.9603 1.55029H5.23893C2.6616 1.55029 0.572266 3.63963 0.572266 6.21696V15.759C0.572266 18.3363 2.6616 20.4257 5.23893 20.4257H22.9603C25.5376 20.4257 27.627 18.3363 27.627 15.759V6.21696C27.627 3.63963 25.5376 1.55029 22.9603 1.55029Z" fill="white"/>
<path fill-rule="evenodd" clip-rule="evenodd" d="M16.8852 14.7983C17.0375 14.4049 17.3765 13.5231 17.2153 13.3094H17.2165C17.056 13.0953 16.1552 13.2077 15.75 13.2582C15.6267 13.2736 15.6069 13.1623 15.7178 13.0816C16.4372 12.5563 17.6159 12.7066 17.7528 12.8839C17.8897 13.0613 17.7155 14.2891 17.0416 14.8753C16.9379 14.9652 16.839 14.9172 16.8852 14.7983ZM12.0441 15.4054C13.6109 15.4054 15.4356 14.8914 16.6925 13.9277V13.9296C16.9006 13.767 16.7222 13.528 16.5101 13.6216C15.1381 14.2229 13.6653 14.5368 12.1762 14.5453C10.1103 14.5453 8.11197 13.9566 6.49529 12.9794C6.35366 12.8938 6.24817 13.0447 6.3667 13.1549C7.9231 14.614 9.9478 15.4165 12.0441 15.4054Z" fill="#EF8A1E"/>
<path fill-rule="evenodd" clip-rule="evenodd" d="M22.2904 12.5203H22.9576C23.0274 12.5216 23.0861 12.4646 23.0886 12.3921V10.4704C23.0886 10.229 23.1011 10.011 23.1947 9.79305C23.259 9.62723 23.4104 9.5156 23.5823 9.50734C24.0091 9.50734 24.005 9.99333 24.0019 10.3751C24.0016 10.4073 24.0013 10.4387 24.0013 10.4692V12.4082C24.0095 12.4703 24.0594 12.5176 24.1198 12.5203H24.793C24.8569 12.5216 24.9119 12.4737 24.9217 12.4082V10.1613C24.9217 9.81583 24.9217 9.33492 24.7468 9.04922C24.5577 8.74134 24.265 8.62866 23.9651 8.62866C23.5029 8.62866 23.2403 8.86142 23.0531 9.34971H23.0401V8.80353C23.0265 8.74644 22.9781 8.70567 22.9215 8.70379H22.3005C22.2348 8.70211 22.1789 8.75296 22.1719 8.82078V12.3921C22.1727 12.4606 22.2245 12.5166 22.2904 12.5203ZM21.6622 10.6471C21.6622 9.52027 21.1247 8.63359 20.1309 8.63359C19.1625 8.63359 18.625 9.50549 18.625 10.6095C18.625 11.7136 19.156 12.6002 20.1309 12.6002C21.0696 12.6002 21.6622 11.7364 21.6622 10.6471ZM19.6123 10.4969C19.6123 10.0609 19.6437 9.36264 20.1374 9.36264C20.3495 9.36264 20.4994 9.46177 20.5747 9.70807C20.6625 9.99317 20.6749 10.354 20.6749 10.6545C20.6749 11.1126 20.6553 11.8638 20.1309 11.8638C19.6121 11.8638 19.6122 10.953 19.6123 10.5113V10.4969ZM7.09019 12.5276H7.75926C7.79284 12.5284 7.82595 12.5153 7.85019 12.4911C7.87444 12.467 7.88842 12.4338 7.88905 12.3989V10.5067L7.88903 10.4771C7.88876 10.0656 7.8884 9.5215 8.35129 9.5215C8.77923 9.5215 8.77262 9.9996 8.76727 10.3857C8.76669 10.4274 8.76613 10.468 8.76613 10.5067V12.3995C8.76727 12.4679 8.81897 12.5237 8.88465 12.5276H9.55551C9.58898 12.5283 9.62134 12.515 9.64546 12.491C9.66958 12.4668 9.68349 12.4336 9.6841 12.3989V10.5067L9.68404 10.4617C9.68363 10.2612 9.68309 9.99068 9.74696 9.8226C9.81201 9.65078 9.96928 9.53575 10.147 9.53011C10.3407 9.53011 10.4906 9.59784 10.5405 9.83799C10.5659 9.95357 10.5626 10.2215 10.5604 10.3992C10.5599 10.4411 10.5594 10.478 10.5594 10.5067V12.3995C10.5603 12.468 10.6122 12.524 10.678 12.5276H11.347C11.3806 12.5284 11.4131 12.5153 11.4373 12.4911C11.4616 12.467 11.4756 12.4338 11.4762 12.3989V10.1459C11.4762 10.091 11.4771 10.0349 11.478 9.97823C11.4835 9.64182 11.4893 9.28354 11.3073 9.02643C11.0867 8.73478 10.7317 8.58945 10.3789 8.64624C10.026 8.70302 9.7301 8.9531 9.60469 9.30044C9.41683 8.8491 9.14838 8.63912 8.73591 8.63912C8.32344 8.63912 8.01706 8.8491 7.85467 9.30044H7.84223V8.83431C7.83871 8.76788 7.78764 8.71483 7.7237 8.71117H7.09967C7.03076 8.71046 6.97392 8.76706 6.97167 8.83862V12.4099C6.97773 12.4742 7.02812 12.5243 7.09019 12.5276ZM5.92568 12.5547C5.88161 12.5945 5.81827 12.6011 5.76744 12.5713C5.57783 12.4074 5.52066 12.3188 5.43287 12.1828C5.41782 12.1594 5.40171 12.1344 5.38402 12.1076C5.016 12.4968 4.75584 12.6132 4.27996 12.6132C3.71638 12.6132 3.27783 12.2517 3.27783 11.5289C3.27783 10.9642 3.57415 10.5806 3.98898 10.3922C4.29531 10.2525 4.70401 10.2091 5.05736 10.1717C5.12307 10.1647 5.18685 10.158 5.24772 10.1508V10.0609L5.24799 10.0085C5.24915 9.85526 5.25046 9.6846 5.16653 9.55599C5.08474 9.42791 4.92948 9.37558 4.7908 9.37558C4.53538 9.37558 4.30781 9.51166 4.2521 9.79306C4.24505 9.8587 4.19643 9.91123 4.13358 9.92113L3.48999 9.84786C3.45787 9.84308 3.42905 9.82483 3.41023 9.79737C3.39142 9.76991 3.38426 9.73563 3.39043 9.70255C3.53917 8.88482 4.25033 8.6379 4.8874 8.6379C5.21334 8.6379 5.63885 8.72781 5.89486 8.98396C6.19539 9.27632 6.19354 9.65905 6.19151 10.0774C6.19134 10.1119 6.19117 10.1466 6.19117 10.1816V11.2647C6.19117 11.5564 6.29534 11.7015 6.40506 11.8543C6.41809 11.8725 6.4312 11.8907 6.44422 11.9094C6.48689 11.971 6.49638 12.0479 6.44422 12.0941C6.30733 12.213 6.06435 12.4322 5.93101 12.5559L5.92568 12.5547ZM5.25067 10.8589L5.25068 10.8926C5.25092 11.1487 5.25112 11.3659 5.12562 11.5978C5.01895 11.7937 4.85005 11.9143 4.66159 11.9143C4.40499 11.9143 4.25506 11.7112 4.25506 11.4094C4.25506 10.817 4.76649 10.7093 5.25067 10.7093V10.8589ZM15.1794 11.8518C15.1924 11.8699 15.2057 11.8884 15.2186 11.907C15.2637 11.971 15.2731 12.0461 15.2156 12.0886C15.0787 12.2074 14.8358 12.4272 14.7025 12.5504C14.6581 12.5895 14.595 12.596 14.5442 12.5664C14.3538 12.4018 14.2973 12.3145 14.2083 12.1766C14.1935 12.1536 14.1777 12.1292 14.1602 12.1028C13.7928 12.4919 13.5308 12.6083 13.0567 12.6083C12.4931 12.6083 12.0546 12.2468 12.0546 11.5246C12.0546 10.9593 12.3491 10.5757 12.7687 10.3872C13.0757 10.247 13.4867 10.2039 13.8411 10.1667C13.9054 10.16 13.9679 10.1534 14.0274 10.1465V10.0584L14.0277 10.0063C14.0289 9.85299 14.0302 9.68226 13.9457 9.55414C13.8662 9.42606 13.708 9.37311 13.57 9.37311C13.3145 9.37311 13.0881 9.50919 13.0318 9.79059C13.0245 9.85614 12.9761 9.90856 12.9133 9.91866L12.2643 9.84601C12.2321 9.84139 12.2029 9.82312 12.184 9.7955C12.165 9.76788 12.1579 9.73336 12.1642 9.70007C12.3136 8.88174 13.0247 8.63544 13.6618 8.63544C13.9872 8.63544 14.4127 8.72534 14.6693 8.98149C14.9705 9.27234 14.9683 9.65211 14.966 10.0682C14.9658 10.1047 14.9656 10.142 14.9656 10.1791V11.2629C14.9656 11.554 15.0697 11.699 15.1794 11.8518ZM13.4396 11.9106C13.6274 11.9106 13.7969 11.7899 13.903 11.5948C14.0289 11.3616 14.0288 11.1434 14.0286 10.884V10.8564V10.7062C13.5445 10.7062 13.033 10.8134 13.033 11.4063C13.033 11.7074 13.1829 11.9106 13.4396 11.9106ZM15.7852 8.8263V9.33492C15.7848 9.36981 15.7982 9.40332 15.8223 9.42764C15.8464 9.45196 15.879 9.46497 15.9126 9.46361H17.0646L15.7436 11.434C15.6833 11.5397 15.6549 11.6617 15.6619 11.7844V12.3047C15.6619 12.3798 15.7419 12.4654 15.8183 12.4229C16.5469 12.0304 17.4133 12.0288 18.1432 12.4186C18.2268 12.4635 18.3055 12.3767 18.3055 12.3016V11.7548C18.3033 11.6712 18.2581 11.5953 18.187 11.5559C17.8025 11.3312 17.355 11.2653 16.9319 11.2758L18.0721 9.58492C18.1781 9.43344 18.2374 9.33738 18.2374 9.26411V8.8263C18.2378 8.79153 18.2244 8.75812 18.2004 8.73382C18.1765 8.70952 18.1441 8.69644 18.1106 8.69762H15.9102C15.8767 8.69567 15.844 8.70855 15.8202 8.73308C15.7963 8.75761 15.7836 8.79149 15.7852 8.8263Z" fill="#141414"/>
</svg>
