<svg width="29" height="22" viewBox="0 0 29 22" fill="none" xmlns="http://www.w3.org/2000/svg">
<path d="M23.3276 1.22437H5.64595C2.97974 1.22437 0.818359 3.38575 0.818359 6.05195V15.923C0.818359 18.5892 2.97974 20.7506 5.64595 20.7506H23.3276C25.9938 20.7506 28.1551 18.5892 28.1551 15.923V6.05195C28.1551 3.38575 25.9938 1.22437 23.3276 1.22437Z" fill="white"/>
<path fill-rule="evenodd" clip-rule="evenodd" d="M7.33768 8.49232C7.70481 8.52458 8.07193 8.29876 8.30139 8.01246C8.52702 7.71809 8.67616 7.32292 8.63792 6.91968C8.31286 6.9358 7.91132 7.14549 7.68186 7.43986C7.47153 7.6939 7.29179 8.10521 7.33768 8.49232ZM11.7049 13.6861V7.39953H13.9421C15.0971 7.39953 15.9039 8.23828 15.9039 9.46412C15.9039 10.69 15.0817 11.5368 13.9115 11.5368H12.6305V13.6861H11.7049ZM8.63406 8.56893C8.31064 8.54931 8.01552 8.67149 7.77714 8.77019C7.62375 8.83371 7.49385 8.88749 7.39502 8.88749C7.28411 8.88749 7.14885 8.83083 6.99697 8.76721C6.79798 8.68385 6.57046 8.58855 6.33188 8.59312C5.78502 8.60119 5.27639 8.92782 4.99722 9.448C4.42359 10.4884 4.84808 12.0288 5.40259 12.8755C5.67411 13.295 5.99917 13.7546 6.42748 13.7385C6.61592 13.731 6.75146 13.6704 6.89174 13.6076C7.05324 13.5353 7.22101 13.4603 7.48297 13.4603C7.73585 13.4603 7.89628 13.5333 8.05029 13.6035C8.19672 13.6703 8.33735 13.7344 8.54611 13.7304C8.98972 13.7224 9.26888 13.3111 9.5404 12.8917C9.83341 12.4416 9.96218 12.0023 9.98172 11.9356L9.98402 11.928C9.98402 11.928 9.97993 11.9257 9.97355 11.9226C9.87559 11.8754 9.12692 11.514 9.11974 10.5448C9.11254 9.73139 9.71357 9.31925 9.80818 9.25438C9.81394 9.25043 9.81782 9.24776 9.81957 9.24638C9.43715 8.64958 8.84057 8.58506 8.63406 8.56893ZM17.5943 13.7345C18.1756 13.7345 18.7148 13.424 18.9595 12.932H18.9786V13.6861H19.8353V10.5569C19.8353 9.64962 19.1469 9.06492 18.0877 9.06492C17.1048 9.06492 16.3782 9.65768 16.3515 10.4723H17.1851C17.2539 10.0851 17.5943 9.83108 18.0608 9.83108C18.6268 9.83108 18.9443 10.1093 18.9443 10.6214V10.9683L17.7893 11.0408C16.7147 11.1093 16.1334 11.5731 16.1334 12.3796C16.1334 13.1942 16.7338 13.7345 17.5943 13.7345ZM17.8428 12.9885C17.3495 12.9885 17.0359 12.7384 17.0359 12.3554C17.0359 11.9602 17.338 11.7303 17.9155 11.694L18.9442 11.6255V11.9804C18.9442 12.5691 18.47 12.9885 17.8428 12.9885ZM22.6767 13.932C22.3057 15.0329 21.8813 15.3958 20.9787 15.3958C20.9099 15.3958 20.6805 15.3877 20.6269 15.3716V14.6175C20.6842 14.6256 20.8258 14.6336 20.8984 14.6336C21.3076 14.6336 21.5371 14.4522 21.6785 13.9805L21.7627 13.7022L20.1947 9.12541H21.1622L22.2522 12.8392H22.2713L23.3612 9.12541H24.3019L22.6767 13.932ZM12.6304 8.22214H13.6973C14.5004 8.22214 14.9593 8.67377 14.9593 9.46816C14.9593 10.2626 14.5004 10.7182 13.6935 10.7182H12.6304V8.22214Z" fill="#141414"/>
</svg>
