<svg width="29" height="22" viewBox="0 0 29 22" fill="none" xmlns="http://www.w3.org/2000/svg">
<path d="M23.2743 1.55029H5.5529C2.97557 1.55029 0.88623 3.63963 0.88623 6.21696V15.759C0.88623 18.3363 2.97557 20.4257 5.5529 20.4257H23.2743C25.8516 20.4257 27.941 18.3363 27.941 15.759V6.21696C27.941 3.63963 25.8516 1.55029 23.2743 1.55029Z" fill="#1F72CD"/>
<path fill-rule="evenodd" clip-rule="evenodd" d="M5.73589 8.23535L3.20459 13.9347H6.23491L6.61058 13.026H7.46928L7.84495 13.9347H11.1805V13.2412L11.4777 13.9347H13.2031L13.5003 13.2265V13.9347H20.4373L21.2808 13.0496L22.0707 13.9347L25.6337 13.9421L23.0943 11.1009L25.6337 8.23535H22.1259L21.3048 9.10412L20.5398 8.23535H12.9933L12.3452 9.70642L11.6821 8.23535H8.65806V8.90532L8.32165 8.23535H5.73589ZM16.0949 9.04467H20.0785L21.2968 10.3838L22.5545 9.04467H23.7729L21.9216 11.1002L23.7729 13.132H22.4992L21.2808 11.7773L20.0168 13.132H16.0949V9.04467ZM17.0786 10.638V9.89144L19.5642 9.89072L20.6488 11.0847L19.5161 12.2851H17.0786V11.4702H19.2518V10.638H17.0786ZM6.32224 9.04467H7.79936L9.47837 12.9094V9.04467H11.0965L12.3933 11.8157L13.5885 9.04467H15.1985V13.1344H14.2189L14.2109 9.92971L12.7826 13.1344H11.9063L10.47 9.92971V13.1344H8.45459L8.0725 12.2175H6.00825L5.62695 13.1335H4.54712L6.32224 9.04467ZM6.36071 11.3699L7.0408 9.73663L7.7201 11.3699H6.36071Z" fill="white"/>
</svg>
