<svg width="12" height="12" viewBox="0 0 12 12" fill="none" xmlns="http://www.w3.org/2000/svg">
<path d="M7.6126 4.37209V3.27266C7.6126 2.81243 7.44072 2.42039 7.09697 2.09653C6.77041 1.75562 6.3751 1.58515 5.91103 1.58515C5.44697 1.58515 5.04307 1.75562 4.69932 2.09653C4.37275 2.42039 4.20947 2.81243 4.20947 3.27266V4.37209H7.6126ZM5.1376 8.94879C5.36103 9.17039 5.61885 9.28118 5.91103 9.28118C6.20322 9.28118 6.46103 9.17039 6.68447 8.94879C6.90791 8.72721 7.01963 8.47152 7.01963 8.18175C7.01963 7.89198 6.90791 7.6363 6.68447 7.41471C6.46103 7.19311 6.20322 7.08232 5.91103 7.08232C5.61885 7.08232 5.36103 7.19311 5.1376 7.41471C4.91416 7.6363 4.80244 7.89198 4.80244 8.18175C4.80244 8.47152 4.91416 8.72721 5.1376 8.94879ZM9.21103 4.37209C9.50322 4.37209 9.76103 4.48289 9.98447 4.70448C10.2079 4.90902 10.3196 5.15618 10.3196 5.44596V10.9175C10.3196 11.2073 10.2079 11.463 9.98447 11.6846C9.76103 11.8891 9.50322 11.9914 9.21103 11.9914H2.61103C2.31885 11.9914 2.06103 11.8891 1.8376 11.6846C1.61416 11.463 1.50244 11.2073 1.50244 10.9175V5.44596C1.50244 5.15618 1.61416 4.90902 1.8376 4.70448C2.06103 4.48289 2.31885 4.37209 2.61103 4.37209H3.15244V3.27266C3.15244 2.52266 3.41885 1.88345 3.95166 1.35505C4.50166 0.809593 5.15478 0.536865 5.91103 0.536865C6.66728 0.536865 7.31182 0.809593 7.84463 1.35505C8.39463 1.88345 8.66963 2.52266 8.66963 3.27266V4.37209H9.21103Z" fill="#141414"/>
</svg>
