<svg width="29" height="22" viewBox="0 0 29 22" fill="none" xmlns="http://www.w3.org/2000/svg">
<path d="M23.5712 1.22437H5.23872C2.57252 1.22437 0.411133 3.38575 0.411133 6.05195V15.923C0.411133 18.5892 2.57252 20.7506 5.23872 20.7506H23.5712C26.2374 20.7506 28.3988 18.5892 28.3988 15.923V6.05195C28.3988 3.38575 26.2374 1.22437 23.5712 1.22437Z" fill="#5A31F4"/>
<path d="M16.168 10.2237C16.168 11.4768 15.3045 12.3713 14.0979 12.3713H12.9612C12.9487 12.3713 12.9362 12.3738 12.9246 12.3787C12.913 12.3836 12.9025 12.3908 12.8937 12.3998C12.8848 12.4089 12.8778 12.4196 12.8731 12.4314C12.8683 12.4432 12.8659 12.4559 12.8659 12.4687V14.1155C12.8659 14.1412 12.856 14.166 12.8381 14.1842C12.8203 14.2025 12.796 14.2128 12.7707 14.2129H11.9752C11.9563 14.2128 11.9379 14.2071 11.9221 14.1964C11.9065 14.1857 11.8942 14.1704 11.8869 14.1526C11.8822 14.141 11.8796 14.1286 11.8796 14.1159V8.1732C11.8795 8.16043 11.8819 8.14778 11.8867 8.13596C11.8914 8.12415 11.8984 8.11341 11.9073 8.10435C11.9161 8.09531 11.9267 8.08812 11.9383 8.08323C11.9498 8.07832 11.9623 8.0758 11.9748 8.0758H14.103C15.3045 8.07439 16.168 8.96887 16.168 10.2237ZM15.1759 10.2237C15.1759 9.50339 14.6932 8.97686 14.0384 8.97686H12.9612C12.9487 8.97686 12.9362 8.97938 12.9246 8.98429C12.913 8.98918 12.9025 8.99636 12.8937 9.00542C12.8848 9.01447 12.8778 9.02521 12.8731 9.03702C12.8683 9.04884 12.8659 9.06149 12.8659 9.07426V11.3676C12.8659 11.3933 12.876 11.418 12.8938 11.4361C12.9117 11.4543 12.9359 11.4645 12.9612 11.4645H14.0384C14.6932 11.4693 15.1759 10.9423 15.1759 10.2237ZM16.4038 13.0728C16.3956 12.8807 16.4347 12.6894 16.5175 12.5166C16.6004 12.3436 16.7244 12.1946 16.8783 12.0829C17.1886 11.8452 17.6737 11.7224 18.3859 11.697L19.1444 11.6697V11.4419C19.1444 10.9855 18.8437 10.7926 18.361 10.7926C17.8781 10.7926 17.572 10.9667 17.5017 11.2513C17.496 11.2714 17.4839 11.2889 17.4673 11.3012C17.4507 11.3134 17.4306 11.3198 17.4101 11.3191H16.6609C16.6472 11.3195 16.6335 11.3168 16.6208 11.3112C16.6082 11.3056 16.5969 11.2972 16.5878 11.2866C16.5786 11.2761 16.572 11.2636 16.5682 11.2501C16.5643 11.2367 16.5635 11.2225 16.5657 11.2086C16.6766 10.5339 17.2284 10.021 18.3952 10.021C19.6364 10.021 20.0845 10.6091 20.0845 11.7318V14.1155C20.0843 14.1415 20.0739 14.1663 20.0557 14.1846C20.0375 14.2028 20.013 14.2131 19.9874 14.2129H19.2323C19.207 14.2129 19.1827 14.2027 19.1647 14.1847C19.1559 14.1756 19.1488 14.1649 19.1441 14.1531C19.1394 14.1413 19.137 14.1287 19.137 14.1159V13.9376C19.1372 13.9229 19.1331 13.9085 19.1252 13.8961C19.1172 13.8838 19.1057 13.8743 19.0923 13.8687C19.0788 13.8632 19.0642 13.8618 19.05 13.865C19.0358 13.8682 19.0229 13.8756 19.013 13.8863C18.7864 14.1372 18.4206 14.3183 17.8347 14.3183C16.9727 14.3183 16.4038 13.8619 16.4038 13.0728ZM19.1444 12.5561V12.3713L18.1621 12.424C17.6446 12.4508 17.3435 12.6696 17.3435 13.038C17.3435 13.3711 17.6196 13.5556 18.1019 13.5556C18.7573 13.5556 19.1444 13.1956 19.1444 12.5561ZM20.8429 16.0141V15.3233C20.8431 15.3088 20.8464 15.2945 20.8526 15.2815C20.8588 15.2685 20.8676 15.257 20.8787 15.2478C20.8898 15.2386 20.9026 15.2321 20.9164 15.2285C20.9302 15.225 20.9446 15.2246 20.9586 15.2273C21.0742 15.2495 21.1922 15.2608 21.31 15.2612C21.5128 15.2713 21.713 15.2118 21.8785 15.0924C22.0441 14.9729 22.1656 14.8005 22.2234 14.6025L22.2725 14.4434C22.2795 14.4221 22.2795 14.3989 22.2725 14.3776L20.6987 10.2652C20.693 10.2503 20.691 10.2342 20.6927 10.2182C20.6945 10.2024 20.7 10.1872 20.7088 10.1739C20.7177 10.1607 20.7295 10.1499 20.7434 10.1423C20.7572 10.1347 20.7726 10.1308 20.7884 10.1306H21.5514C21.5709 10.1308 21.59 10.1369 21.606 10.1483C21.6219 10.1596 21.6343 10.1756 21.6412 10.1941L22.71 13.0944C22.7166 13.1137 22.7291 13.1304 22.7454 13.1422C22.7618 13.154 22.7814 13.1604 22.8015 13.1604C22.8216 13.1604 22.8412 13.154 22.8576 13.1422C22.874 13.1304 22.8864 13.1137 22.8931 13.0944L23.8213 10.2021C23.8276 10.1823 23.8401 10.1651 23.8567 10.153C23.8733 10.1408 23.8933 10.1343 23.9138 10.1343H24.7032C24.719 10.1344 24.7345 10.1385 24.7484 10.146C24.7624 10.1536 24.7744 10.1644 24.7834 10.1777C24.7924 10.1909 24.798 10.2062 24.7999 10.2222C24.8017 10.2381 24.7998 10.2544 24.7942 10.2694L23.1109 14.8363C22.7234 15.8979 22.0588 16.1694 21.3271 16.1694C21.1884 16.1732 21.0497 16.1562 20.9155 16.119C20.8933 16.113 20.8737 16.0992 20.8605 16.08C20.8472 16.0608 20.841 16.0375 20.8429 16.0141ZM6.76794 7.73326C5.76536 7.72599 4.79816 8.10991 4.06531 8.80606C4.03397 8.83527 4.01443 8.87529 4.0105 8.91834C4.00657 8.96139 4.01852 9.0044 4.04404 9.03897L4.49771 9.66948C4.51242 9.69047 4.53147 9.70793 4.55353 9.72063C4.57558 9.73332 4.60009 9.74095 4.62535 9.74297C4.65062 9.74499 4.676 9.74135 4.69973 9.73231C4.72346 9.72327 4.74496 9.70905 4.7627 9.69066C5.02621 9.42261 5.3396 9.2107 5.68453 9.06729C6.02947 8.92389 6.39903 8.85187 6.77164 8.85547C8.32737 8.85547 9.13991 10.0469 9.13991 11.2232C9.13991 12.5021 8.28621 13.4017 7.05929 13.4196C6.11124 13.4196 5.39674 12.7801 5.39674 11.9355C5.39773 11.7221 5.44524 11.5117 5.53584 11.3192C5.62646 11.1268 5.7579 10.9573 5.92071 10.8228C5.95513 10.7935 5.97688 10.7517 5.98129 10.7062C5.98571 10.6608 5.97242 10.6155 5.9443 10.5799L5.46749 9.96733C5.45308 9.9488 5.43516 9.9334 5.4148 9.92203C5.39442 9.91067 5.37203 9.90357 5.34893 9.90116C5.32582 9.89875 5.30248 9.90107 5.28026 9.90799C5.25805 9.91491 5.23743 9.92628 5.21962 9.94144C4.92679 10.1815 4.69049 10.4852 4.52805 10.8302C4.3656 11.1753 4.28112 11.553 4.28082 11.9355C4.28082 13.3895 5.49524 14.5301 7.05097 14.5394H7.07178C8.91885 14.515 10.2545 13.1232 10.2545 11.2208C10.2545 9.53162 9.03123 7.73326 6.76794 7.73326Z" fill="white"/>
</svg>
