<svg width="29" height="22" viewBox="0 0 29 22" fill="none" xmlns="http://www.w3.org/2000/svg">
<path d="M23.5814 1.55029H5.86003C3.2827 1.55029 1.19336 3.63963 1.19336 6.21696V15.759C1.19336 18.3363 3.2827 20.4257 5.86003 20.4257H23.5814C26.1587 20.4257 28.2481 18.3363 28.2481 15.759V6.21696C28.2481 3.63963 26.1587 1.55029 23.5814 1.55029Z" fill="white"/>
<path fill-rule="evenodd" clip-rule="evenodd" d="M13.9702 13.9436V11.5677H15.1754C15.6693 11.5677 16.0862 11.3993 16.426 11.0673L16.5075 10.9832C17.1282 10.2956 17.0875 9.22457 16.426 8.5885C16.0952 8.25175 15.6421 8.06935 15.1754 8.07871H13.2407V13.9436H13.9702ZM13.9703 10.8474V8.79896H15.1938C15.4566 8.79896 15.7059 8.90185 15.8917 9.08892C16.286 9.48179 16.2951 10.1365 15.9143 10.5435C15.7285 10.7446 15.4657 10.8568 15.1938 10.8474H13.9703ZM19.9103 10.2441C19.5977 9.9495 19.1718 9.79984 18.6326 9.79984C17.9393 9.79984 17.4182 10.0618 17.0739 10.5809L17.7173 10.9972C17.9529 10.6417 18.2746 10.4639 18.6824 10.4639C18.9407 10.4639 19.1899 10.5622 19.3847 10.7399C19.575 10.9083 19.6837 11.1515 19.6837 11.4088V11.5818C19.4028 11.4228 19.0494 11.3386 18.6144 11.3386C18.1069 11.3386 17.6992 11.4602 17.3956 11.7081C17.092 11.956 16.9379 12.2833 16.9379 12.6996C16.9289 13.0784 17.0875 13.4386 17.3684 13.6817C17.6539 13.9437 18.0163 14.0746 18.4423 14.0746C18.9452 14.0746 19.3439 13.8454 19.6475 13.387H19.6792V13.9437H20.377V11.4695C20.377 10.9504 20.2229 10.5388 19.9103 10.2441ZM17.9303 13.2047C17.7808 13.0924 17.6902 12.91 17.6902 12.7136C17.6902 12.4938 17.7899 12.3114 17.9848 12.1664C18.1841 12.0214 18.4334 11.9465 18.728 11.9465C19.1358 11.9419 19.453 12.0354 19.6796 12.2225C19.6796 12.5405 19.5572 12.8165 19.3171 13.0503C19.0995 13.2749 18.805 13.4011 18.4969 13.4011C18.2929 13.4058 18.0935 13.3356 17.9303 13.2047ZM21.9447 15.7068L24.3823 9.9308H23.5894L22.4612 12.8118H22.4476L21.2922 9.9308H20.4993L22.0987 13.6864L21.1925 15.7068H21.9447Z" fill="#3C4043"/>
<path d="M11.4517 11.0533C11.4517 10.8241 11.4336 10.5949 11.3973 10.3704H8.3208V11.6659H10.0833C10.0109 12.0822 9.7752 12.4564 9.43088 12.6902V13.532H10.482C11.0983 12.9474 11.4517 12.0822 11.4517 11.0533Z" fill="#4285F4"/>
<path d="M8.32111 14.346C9.20011 14.346 9.94314 14.0467 10.4823 13.5322L9.43118 12.6904C9.13667 12.8962 8.7606 13.013 8.32111 13.013C7.46929 13.013 6.74887 12.419 6.49061 11.624H5.40771V12.4939C5.96048 13.6304 7.08869 14.346 8.32111 14.346Z" fill="#2DC650"/>
<path d="M6.49076 11.6236C6.35481 11.2074 6.35481 10.7537 6.49076 10.3328V9.46753H5.40769C4.94093 10.417 4.94093 11.5394 5.40769 12.4889L6.49076 11.6236Z" fill="#EF8A1E"/>
<path d="M8.32111 8.94398C8.78779 8.93463 9.23635 9.11703 9.57164 9.44909L10.505 8.48564C9.9115 7.91505 9.13214 7.60169 8.32111 7.61104C7.08869 7.61104 5.96048 8.3313 5.40771 9.46781L6.49061 10.3377C6.74887 9.53796 7.46929 8.94398 8.32111 8.94398Z" fill="#EA4335"/>
</svg>
