<svg width="41" height="29" viewBox="0 0 41 29" fill="none" xmlns="http://www.w3.org/2000/svg">
<path d="M32.171 1.15372H7.75358C4.07168 1.15372 1.08691 4.10457 1.08691 7.74463V21.2212C1.08691 24.8612 4.07168 27.8121 7.75358 27.8121H32.171C35.8529 27.8121 38.8377 24.8612 38.8377 21.2212V7.74463C38.8377 4.10457 35.8529 1.15372 32.171 1.15372Z" fill="white"/>
<path fill-rule="evenodd" clip-rule="evenodd" d="M20.2314 20.2113C18.9462 21.3535 17.279 22.0429 15.4572 22.0429C11.3924 22.0429 8.09717 18.6101 8.09717 14.3753C8.09717 10.1406 11.3924 6.70773 15.4572 6.70773C17.279 6.70773 18.9462 7.39725 20.2314 8.53943C21.5166 7.39725 23.1838 6.70773 25.0055 6.70773C29.0703 6.70773 32.3655 10.1406 32.3655 14.3753C32.3655 18.6101 29.0703 22.0429 25.0055 22.0429C23.1838 22.0429 21.5166 21.3535 20.2314 20.2113Z" fill="#ED0006"/>
<path fill-rule="evenodd" clip-rule="evenodd" d="M20.2314 20.2113C21.814 18.8049 22.8174 16.7122 22.8174 14.3753C22.8174 12.0385 21.814 9.94581 20.2314 8.53943C21.5168 7.39725 23.1838 6.70773 25.0056 6.70773C29.0705 6.70773 32.3657 10.1406 32.3657 14.3753C32.3657 18.6101 29.0705 22.0429 25.0056 22.0429C23.1838 22.0429 21.5168 21.3535 20.2314 20.2113Z" fill="#EF8A1E"/>
<path fill-rule="evenodd" clip-rule="evenodd" d="M20.2314 8.53955C21.8139 9.94593 22.8174 12.0386 22.8174 14.3754C22.8174 16.7123 21.8139 18.8049 20.2314 20.2113C18.649 18.8049 17.6455 16.7123 17.6455 14.3754C17.6455 12.0386 18.649 9.94593 20.2314 8.53955Z" fill="#EF8A1E"/>
</svg>
