<svg width="41" height="29" viewBox="0 0 41 29" fill="none" xmlns="http://www.w3.org/2000/svg">
<path d="M33.5113 1.15372H8.19499C4.51309 1.15372 1.52832 4.10457 1.52832 7.74463V21.2212C1.52832 24.8612 4.51309 27.8121 8.19499 27.8121H33.5113C37.1932 27.8121 40.1779 24.8612 40.1779 21.2212V7.74463C40.1779 4.10457 37.1932 1.15372 33.5113 1.15372Z" fill="white"/>
<path fill-rule="evenodd" clip-rule="evenodd" d="M19.7814 18.6573V15.3017H21.5031C22.2086 15.3017 22.8042 15.0639 23.2897 14.595L23.4061 14.4761C24.2929 13.505 24.2346 11.9924 23.2897 11.0941C22.8171 10.6185 22.1698 10.3609 21.5031 10.3741H18.7393V18.6573H19.7814ZM19.7815 14.2845V11.3913H21.5294C21.9049 11.3913 22.261 11.5366 22.5263 11.8008C23.0897 12.3557 23.1026 13.2804 22.5587 13.8551C22.2933 14.1392 21.9178 14.2976 21.5294 14.2845H19.7815ZM28.2673 13.4324C27.8206 13.0163 27.2122 12.8049 26.4419 12.8049C25.4515 12.8049 24.7071 13.1748 24.2153 13.908L25.1343 14.4959C25.471 13.9939 25.9305 13.7428 26.5131 13.7428C26.8821 13.7428 27.2381 13.8816 27.5163 14.1326C27.7882 14.3704 27.9435 14.7139 27.9435 15.0772V15.3216C27.5422 15.097 27.0374 14.9781 26.4159 14.9781C25.691 14.9781 25.1085 15.1499 24.6749 15.5C24.2411 15.8501 24.021 16.3124 24.021 16.9003C24.0081 17.4353 24.2347 17.944 24.6359 18.2874C25.0438 18.6574 25.5615 18.8423 26.1701 18.8423C26.8885 18.8423 27.4581 18.5186 27.8918 17.8712H27.9371V18.6574H28.9339V15.163C28.9339 14.4299 28.7138 13.8485 28.2673 13.4324ZM25.4387 17.6137C25.2251 17.4551 25.0957 17.1975 25.0957 16.92C25.0957 16.6096 25.2381 16.352 25.5165 16.1473C25.8013 15.9425 26.1574 15.8368 26.5782 15.8368C27.1609 15.8302 27.6139 15.9622 27.9377 16.2265C27.9377 16.6756 27.7629 17.0654 27.4198 17.3956C27.109 17.7128 26.6882 17.8911 26.2481 17.8911C25.9567 17.8977 25.6718 17.7986 25.4387 17.6137ZM31.1735 21.1476L34.6558 12.9899H33.5231L31.9114 17.0588H31.8919L30.2414 12.9899H29.1087L31.3935 18.294L30.099 21.1476H31.1735Z" fill="#3C4043"/>
<path d="M16.1831 14.5753C16.1831 14.2515 16.1572 13.9279 16.1055 13.6107H11.7104V15.4405H14.2283C14.1248 16.0284 13.7882 16.5569 13.2963 16.8871V18.0761H14.7979C15.6783 17.2504 16.1831 16.0284 16.1831 14.5753Z" fill="#4285F4"/>
<path d="M11.7113 19.2255C12.967 19.2255 14.0285 18.8028 14.7988 18.0762L13.2971 16.8872C12.8764 17.1779 12.3392 17.3429 11.7113 17.3429C10.4944 17.3429 9.46525 16.504 9.0963 15.3812H7.54932V16.6097C8.33898 18.2149 9.9507 19.2255 11.7113 19.2255Z" fill="#2DC650"/>
<path d="M9.09666 15.3808C8.90244 14.793 8.90244 14.1523 9.09666 13.5578V12.3358H7.54942C6.88262 13.6767 6.88262 15.2619 7.54942 16.6029L9.09666 15.3808Z" fill="#EF8A1E"/>
<path d="M11.7113 11.5961C12.378 11.5829 13.0188 11.8405 13.4978 12.3095L14.8312 10.9487C13.9833 10.1429 12.8699 9.70031 11.7113 9.71351C9.9507 9.71351 8.33898 10.7308 7.54932 12.3359L9.0963 13.5645C9.46525 12.435 10.4944 11.5961 11.7113 11.5961Z" fill="#EA4335"/>
</svg>
