<svg width="41" height="29" viewBox="0 0 41 29" fill="none" xmlns="http://www.w3.org/2000/svg">
<path d="M33.0606 1.15372H7.7443C4.06241 1.15372 1.07764 4.10457 1.07764 7.74463V21.2212C1.07764 24.8612 4.06241 27.8121 7.7443 27.8121H33.0606C36.7425 27.8121 39.7272 24.8612 39.7272 21.2212V7.74463C39.7272 4.10457 36.7425 1.15372 33.0606 1.15372Z" fill="#5A31F4"/>
<path d="M22.8373 13.4402C22.8373 15.1509 21.6449 16.3721 19.9786 16.3721H18.4089C18.3916 16.3721 18.3744 16.3755 18.3584 16.3822C18.3424 16.389 18.3278 16.3987 18.3157 16.4111C18.3034 16.4235 18.2937 16.4381 18.2872 16.4542C18.2806 16.4703 18.2773 16.4877 18.2773 16.5051V18.7534C18.2773 18.7886 18.2636 18.8223 18.2389 18.8472C18.2142 18.8722 18.1808 18.8863 18.1458 18.8864H17.0473C17.0212 18.8863 16.9957 18.8785 16.974 18.8639C16.9524 18.8492 16.9354 18.8284 16.9253 18.8041C16.9188 18.7883 16.9153 18.7713 16.9152 18.7541V10.6407C16.915 10.6232 16.9184 10.606 16.925 10.5898C16.9316 10.5737 16.9412 10.559 16.9534 10.5467C16.9657 10.5343 16.9802 10.5245 16.9962 10.5178C17.0122 10.5111 17.0294 10.5077 17.0468 10.5077H19.9857C21.6449 10.5058 22.8373 11.727 22.8373 13.4402ZM21.4673 13.4402C21.4673 12.4567 20.8006 11.7379 19.8964 11.7379H18.4089C18.3916 11.7379 18.3744 11.7413 18.3584 11.748C18.3424 11.7547 18.3278 11.7645 18.3157 11.7769C18.3034 11.7892 18.2937 11.8039 18.2872 11.82C18.2806 11.8361 18.2773 11.8534 18.2773 11.8708V15.0018C18.2773 15.0369 18.2912 15.0707 18.3158 15.0954C18.3405 15.1202 18.374 15.1342 18.4089 15.1342H19.8964C20.8006 15.1407 21.4673 14.4212 21.4673 13.4402ZM23.1629 17.3299C23.1516 17.0676 23.2056 16.8064 23.32 16.5705C23.4344 16.3344 23.6057 16.1309 23.8182 15.9784C24.2468 15.654 24.9166 15.4863 25.9001 15.4516L26.9476 15.4143V15.1033C26.9476 14.4802 26.5324 14.2169 25.8657 14.2169C25.1989 14.2169 24.7761 14.4545 24.679 14.8431C24.6712 14.8706 24.6545 14.8944 24.6316 14.9112C24.6086 14.9279 24.5809 14.9366 24.5526 14.9357H23.518C23.499 14.9362 23.4801 14.9325 23.4626 14.9249C23.4452 14.9172 23.4296 14.9057 23.417 14.8913C23.4044 14.8769 23.3952 14.8599 23.39 14.8414C23.3846 14.8231 23.3834 14.8037 23.3865 14.7847C23.5397 13.8636 24.3017 13.1633 25.9129 13.1633C27.627 13.1633 28.2458 13.9663 28.2458 15.4991V18.7534C28.2456 18.789 28.2312 18.8229 28.2061 18.8478C28.1809 18.8727 28.147 18.8867 28.1117 18.8864H27.0689C27.034 18.8864 27.0005 18.8726 26.9756 18.8479C26.9634 18.8355 26.9537 18.8209 26.9472 18.8048C26.9406 18.7887 26.9373 18.7715 26.9373 18.7541V18.5106C26.9377 18.4905 26.932 18.4708 26.921 18.4539C26.91 18.4372 26.8941 18.4241 26.8756 18.4165C26.857 18.409 26.8368 18.4071 26.8172 18.4115C26.7976 18.4158 26.7798 18.426 26.7661 18.4406C26.4532 18.7831 25.9481 19.0303 25.1389 19.0303C23.9485 19.0303 23.1629 18.4072 23.1629 17.3299ZM26.9476 16.6245V16.3721L25.591 16.4441C24.8764 16.4807 24.4606 16.7794 24.4606 17.2824C24.4606 17.7372 24.842 17.989 25.508 17.989C26.413 17.989 26.9476 17.4976 26.9476 16.6245ZM29.2932 21.3455V20.4024C29.2934 20.3827 29.298 20.3632 29.3065 20.3454C29.315 20.3276 29.3273 20.3119 29.3425 20.2994C29.3578 20.2868 29.3756 20.2779 29.3946 20.273C29.4137 20.2682 29.4336 20.2677 29.4529 20.2714C29.6125 20.3016 29.7754 20.317 29.9382 20.3177C30.2182 20.3314 30.4946 20.2502 30.7233 20.0871C30.952 19.9241 31.1197 19.6886 31.1996 19.4183L31.2673 19.2012C31.277 19.172 31.277 19.1404 31.2673 19.1113L29.094 13.4967C29.0861 13.4764 29.0833 13.4544 29.0857 13.4327C29.0882 13.4111 29.0958 13.3902 29.108 13.3722C29.1202 13.3541 29.1365 13.3394 29.1557 13.3289C29.1748 13.3187 29.1961 13.3133 29.2178 13.313H30.2716C30.2985 13.3133 30.3248 13.3217 30.3469 13.3372C30.3689 13.3527 30.386 13.3744 30.3956 13.3997L31.8714 17.3594C31.8806 17.3858 31.8978 17.4086 31.9204 17.4247C31.943 17.4407 31.9701 17.4494 31.9978 17.4494C32.0256 17.4494 32.0526 17.4407 32.0753 17.4247C32.098 17.4086 32.115 17.3858 32.1244 17.3594L33.4061 13.4107C33.4149 13.3836 33.4321 13.3602 33.455 13.3436C33.478 13.327 33.5056 13.3181 33.5338 13.3181H34.624C34.6458 13.3183 34.6673 13.3238 34.6865 13.3341C34.7058 13.3444 34.7224 13.3591 34.7348 13.3773C34.7472 13.3954 34.7549 13.4162 34.7576 13.4381C34.7601 13.4598 34.7574 13.482 34.7497 13.5025L32.4252 19.7375C31.89 21.1869 30.9722 21.5576 29.9618 21.5576C29.7702 21.5627 29.5788 21.5395 29.3934 21.4888C29.3628 21.4806 29.3357 21.4617 29.3174 21.4355C29.299 21.4093 29.2905 21.3775 29.2932 21.3455ZM9.85627 10.04C8.47175 10.0301 7.1361 10.5543 6.12407 11.5047C6.08079 11.5446 6.0538 11.5992 6.04838 11.658C6.04295 11.7168 6.05946 11.7755 6.0947 11.8227L6.72119 12.6835C6.74151 12.7121 6.76782 12.736 6.79827 12.7533C6.82872 12.7706 6.86258 12.7811 6.89746 12.7838C6.93235 12.7866 6.9674 12.7816 7.00018 12.7693C7.03294 12.7569 7.06263 12.7375 7.08714 12.7124C7.45103 12.3464 7.8838 12.0571 8.36014 11.8613C8.83648 11.6656 9.34683 11.5672 9.86138 11.5721C12.0098 11.5721 13.1318 13.1987 13.1318 14.8046C13.1318 16.5507 11.9529 17.779 10.2586 17.8034C8.9494 17.8034 7.96271 16.9303 7.96271 15.7772C7.96407 15.4859 8.02968 15.1985 8.1548 14.9358C8.27994 14.6731 8.46146 14.4416 8.68628 14.258C8.73382 14.2181 8.76386 14.161 8.76995 14.0989C8.77604 14.0369 8.7577 13.975 8.71886 13.9265L8.06042 13.0901C8.04051 13.0648 8.01576 13.0438 7.98764 13.0283C7.95951 13.0128 7.92859 13.0031 7.89668 12.9998C7.86478 12.9965 7.83254 12.9997 7.80186 13.0091C7.77119 13.0185 7.74271 13.0341 7.71811 13.0548C7.31374 13.3825 6.98742 13.7972 6.76308 14.2681C6.53875 14.7393 6.4221 15.2549 6.42167 15.7772C6.42167 17.7623 8.09874 19.3194 10.2471 19.3322H10.2759C12.8266 19.2989 14.671 17.3987 14.671 14.8015C14.671 12.4953 12.9818 10.04 9.85627 10.04Z" fill="white"/>
</svg>
