<svg width="41" height="29" viewBox="0 0 41 29" fill="none" xmlns="http://www.w3.org/2000/svg">
<path d="M32.6245 1.15372H7.30827C3.62637 1.15372 0.641602 4.10457 0.641602 7.74463V21.2212C0.641602 24.8612 3.62637 27.8121 7.30827 27.8121H32.6245C36.3064 27.8121 39.2912 24.8612 39.2912 21.2212V7.74463C39.2912 4.10457 36.3064 1.15372 32.6245 1.15372Z" fill="white"/>
<path fill-rule="evenodd" clip-rule="evenodd" d="M23.9458 19.8645C24.1634 19.3089 24.6477 18.0634 24.4174 17.7617H24.4192C24.1898 17.4593 22.903 17.618 22.3241 17.6893C22.148 17.7111 22.1197 17.5538 22.2781 17.4399C23.3058 16.6981 24.9897 16.9103 25.1853 17.1608C25.3809 17.4112 25.132 19.1453 24.1693 19.9732C24.0212 20.1002 23.8798 20.0324 23.9458 19.8645ZM17.03 20.722C19.2684 20.722 21.875 19.9959 23.6706 18.6349V18.6375C23.9678 18.4079 23.713 18.0704 23.41 18.2026C21.45 19.0518 19.346 19.4951 17.2188 19.5071C14.2674 19.5071 11.4127 18.6757 9.10313 17.2956C8.9008 17.1747 8.75011 17.3877 8.91943 17.5434C11.1429 19.6041 14.0353 20.7376 17.03 20.722Z" fill="#EF8A1E"/>
<path fill-rule="evenodd" clip-rule="evenodd" d="M31.6672 16.6471H32.6204C32.72 16.6489 32.8038 16.5685 32.8074 16.4661V13.7519C32.8074 13.4111 32.8253 13.1032 32.959 12.7953C33.0509 12.5611 33.2672 12.4035 33.5128 12.3918C34.1225 12.3918 34.1166 13.0782 34.1121 13.6174C34.1117 13.6628 34.1113 13.7073 34.1113 13.7502V16.4888C34.123 16.5765 34.1944 16.6432 34.2806 16.6471H35.2424C35.3336 16.6489 35.4121 16.5813 35.4261 16.4888V13.3154C35.4261 12.8275 35.4261 12.1483 35.1764 11.7448C34.9062 11.31 34.488 11.1508 34.0596 11.1508C33.3993 11.1508 33.0242 11.4795 32.7568 12.1692H32.7381V11.3978C32.7188 11.3172 32.6496 11.2596 32.5688 11.2569H31.6816C31.5877 11.2545 31.5078 11.3264 31.4978 11.4222V16.4661C31.499 16.5628 31.573 16.6419 31.6672 16.6471ZM30.7697 14.0015C30.7697 12.4101 30.0018 11.1578 28.5821 11.1578C27.1988 11.1578 26.4309 12.3892 26.4309 13.9485C26.4309 15.5078 27.1894 16.76 28.5821 16.76C29.9232 16.76 30.7697 15.5399 30.7697 14.0015ZM27.8413 13.7894C27.8413 13.1736 27.8862 12.1874 28.5914 12.1874C28.8945 12.1874 29.1086 12.3275 29.2162 12.6753C29.3416 13.078 29.3593 13.5876 29.3593 14.012C29.3593 14.659 29.3313 15.72 28.5821 15.72C27.841 15.72 27.8412 14.4336 27.8413 13.8097V13.7894ZM9.95257 16.6575H10.9084C10.9564 16.6585 11.0037 16.6401 11.0383 16.6059C11.0729 16.5718 11.0929 16.525 11.0938 16.4757V13.8032L11.0938 13.7614C11.0934 13.1803 11.0929 12.4118 11.7541 12.4118C12.3655 12.4118 12.356 13.087 12.3484 13.6324C12.3476 13.6912 12.3468 13.7485 12.3468 13.8032V16.4765C12.3484 16.5731 12.4223 16.6519 12.5161 16.6575H13.4745C13.5223 16.6584 13.5685 16.6397 13.603 16.6057C13.6374 16.5715 13.6573 16.5247 13.6582 16.4757V13.8032L13.6581 13.7397C13.6575 13.4565 13.6567 13.0745 13.748 12.8371C13.8409 12.5944 14.0656 12.4319 14.3194 12.424C14.5962 12.424 14.8104 12.5196 14.8816 12.8588C14.9178 13.022 14.9132 13.4004 14.91 13.6514C14.9093 13.7106 14.9086 13.7628 14.9086 13.8032V16.4765C14.9098 16.5733 14.984 16.6523 15.078 16.6575H16.0337C16.0817 16.6585 16.1282 16.6401 16.1628 16.6059C16.1974 16.5718 16.2174 16.525 16.2184 16.4757V13.2936C16.2184 13.2161 16.2196 13.1369 16.2209 13.0569C16.2288 12.5817 16.237 12.0757 15.977 11.7126C15.6618 11.3007 15.1548 11.0954 14.6508 11.1756C14.1466 11.2558 13.7239 11.609 13.5447 12.0996C13.2763 11.4621 12.8928 11.1656 12.3036 11.1656C11.7144 11.1656 11.2767 11.4621 11.0447 12.0996H11.0269V11.4413C11.0219 11.3474 10.9489 11.2725 10.8576 11.2673H9.96612C9.86767 11.2663 9.78647 11.3463 9.78325 11.4474V16.4913C9.79192 16.5821 9.86391 16.6527 9.95257 16.6575ZM8.28899 16.6957C8.22603 16.7519 8.13555 16.7612 8.06293 16.7192C7.79205 16.4877 7.71039 16.3626 7.58497 16.1704C7.56347 16.1375 7.54045 16.1021 7.51519 16.0643C6.98944 16.614 6.61779 16.7784 5.93796 16.7784C5.13284 16.7784 4.50635 16.2678 4.50635 15.2469C4.50635 14.4494 4.92965 13.9076 5.52227 13.6415C5.95988 13.4443 6.54375 13.383 7.04853 13.3301C7.1424 13.3202 7.23352 13.3108 7.32047 13.3006V13.1736L7.32085 13.0997C7.32252 12.8832 7.32439 12.6422 7.20448 12.4605C7.08764 12.2796 6.86584 12.2057 6.66773 12.2057C6.30284 12.2057 5.97775 12.3979 5.89816 12.7953C5.88808 12.888 5.81863 12.9622 5.72884 12.9762L4.80943 12.8727C4.76355 12.866 4.72237 12.8402 4.69549 12.8014C4.66861 12.7627 4.65839 12.7142 4.6672 12.6675C4.87969 11.5126 5.89563 11.1639 6.80573 11.1639C7.27136 11.1639 7.87923 11.2908 8.24496 11.6526C8.67429 12.0655 8.67164 12.6061 8.66875 13.1969C8.66851 13.2456 8.66825 13.2947 8.66825 13.3441V14.8739C8.66825 15.2858 8.81707 15.4908 8.97381 15.7065C8.99243 15.7323 9.01116 15.758 9.02976 15.7843C9.09072 15.8713 9.10427 15.9799 9.02976 16.0452C8.8342 16.2131 8.48708 16.5226 8.2966 16.6974L8.28899 16.6957ZM7.32468 14.3007L7.32471 14.3483C7.32504 14.71 7.32533 15.0167 7.14604 15.3443C6.99365 15.6209 6.75237 15.7913 6.48315 15.7913C6.11657 15.7913 5.90239 15.5043 5.90239 15.0782C5.90239 14.2415 6.633 14.0894 7.32468 14.0894V14.3007ZM21.5086 15.703C21.5272 15.7286 21.5461 15.7547 21.5646 15.7809C21.629 15.8713 21.6425 15.9774 21.5604 16.0374C21.3648 16.2052 21.0177 16.5156 20.8273 16.6896C20.7638 16.7449 20.6737 16.754 20.6012 16.7122C20.3292 16.4798 20.2485 16.3564 20.1213 16.1617C20.1001 16.1292 20.0776 16.0948 20.0526 16.0574C19.5277 16.607 19.1534 16.7714 18.4762 16.7714C17.671 16.7714 17.0446 16.2608 17.0446 15.2408C17.0446 14.4424 17.4653 13.9006 18.0648 13.6345C18.5033 13.4365 19.0905 13.3756 19.5968 13.323C19.6886 13.3135 19.7778 13.3043 19.8629 13.2945V13.1701L19.8633 13.0966C19.865 12.88 19.8669 12.6389 19.7461 12.4579C19.6326 12.277 19.4066 12.2022 19.2094 12.2022C18.8445 12.2022 18.521 12.3944 18.4406 12.7918C18.4302 12.8844 18.361 12.9585 18.2713 12.9727L17.3442 12.8701C17.2981 12.8636 17.2565 12.8378 17.2294 12.7988C17.2024 12.7598 17.1921 12.711 17.2012 12.664C17.4146 11.5082 18.4305 11.1604 19.3406 11.1604C19.8054 11.1604 20.4133 11.2874 20.7798 11.6491C21.2101 12.0599 21.207 12.5963 21.2037 13.1839C21.2034 13.2355 21.2032 13.2882 21.2032 13.3405V14.8712C21.2032 15.2824 21.3518 15.4872 21.5086 15.703ZM19.0232 15.786C19.2914 15.786 19.5336 15.6156 19.6852 15.34C19.865 15.0107 19.8649 14.7025 19.8646 14.3362V14.2971V14.0851C19.173 14.0851 18.4424 14.2364 18.4424 15.0738C18.4424 15.4991 18.6565 15.786 19.0232 15.786ZM22.374 11.43V12.1483C22.3734 12.1976 22.3926 12.2449 22.427 12.2792C22.4614 12.3136 22.508 12.332 22.556 12.33H24.2017L22.3146 15.113C22.2285 15.2622 22.1878 15.4345 22.1978 15.6078V16.3426C22.1978 16.4487 22.3121 16.5696 22.4213 16.5096C23.4621 15.9553 24.6998 15.9529 25.7426 16.5035C25.862 16.5669 25.9745 16.4443 25.9745 16.3382V15.566C25.9713 15.4479 25.9068 15.3408 25.8052 15.2851C25.2558 14.9677 24.6166 14.8746 24.0121 14.8894L25.641 12.5014C25.7925 12.2874 25.8772 12.1518 25.8772 12.0483V11.43C25.8777 11.3808 25.8586 11.3336 25.8244 11.2993C25.7902 11.265 25.7438 11.2465 25.696 11.2482H22.5526C22.5048 11.2454 22.458 11.2636 22.424 11.2983C22.3898 11.3329 22.3717 11.3808 22.374 11.43Z" fill="#141414"/>
</svg>
