<svg width="41" height="29" viewBox="0 0 41 29" fill="none" xmlns="http://www.w3.org/2000/svg">
<path d="M33.0723 1.15372H7.75602C4.07412 1.15372 1.08936 4.10457 1.08936 7.74463V21.2212C1.08936 24.8612 4.07412 27.8121 7.75602 27.8121H33.0723C36.7542 27.8121 39.739 24.8612 39.739 21.2212V7.74463C39.739 4.10457 36.7542 1.15372 33.0723 1.15372Z" fill="#1F72CD"/>
<path fill-rule="evenodd" clip-rule="evenodd" d="M8.018 10.5953L4.40186 18.6448H8.73088L9.26756 17.3614H10.4943L11.0309 18.6448H15.796V17.6652L16.2206 18.6448H18.6854L19.11 17.6445V18.6448H29.02L30.225 17.3947L31.3534 18.6448L36.4434 18.6552L32.8158 14.6425L36.4434 10.5953H31.4323L30.2592 11.8223L29.1664 10.5953H18.3858L17.4599 12.673L16.5126 10.5953H12.1925V11.5416L11.7119 10.5953H8.018ZM22.8166 11.7384H28.5074L30.2479 13.6296L32.0446 11.7384H33.7851L31.1404 14.6414L33.7851 17.511H31.9656L30.225 15.5978L28.4192 17.511H22.8166V11.7384ZM24.2219 13.9887V12.9343L27.7727 12.9333L29.3222 14.6196L27.704 16.315H24.2219V15.164H27.3264V13.9887H24.2219ZM8.85564 11.7384H10.9658L13.3644 17.1967V11.7384H15.676L17.5286 15.652L19.236 11.7384H21.536V17.5144H20.1366L20.1251 12.9883L18.0847 17.5144H16.8328L14.781 12.9883V17.5144H11.9019L11.356 16.2194H8.40708L7.86238 17.5132H6.31975L8.85564 11.7384ZM8.9106 15.0224L9.88216 12.7156L10.8526 15.0224H8.9106Z" fill="white"/>
</svg>
