<svg width="41" height="29" viewBox="0 0 41 29" fill="none" xmlns="http://www.w3.org/2000/svg">
<path d="M32.8413 1.15372H7.52507C3.84317 1.15372 0.858398 4.10457 0.858398 7.74463V21.2212C0.858398 24.8612 3.84317 27.8121 7.52507 27.8121H32.8413C36.5232 27.8121 39.508 24.8612 39.508 21.2212V7.74463C39.508 4.10457 36.5232 1.15372 32.8413 1.15372Z" fill="white"/>
<path d="M17.1284 27.2567L38.9379 20.8698C38.9379 24.3972 36.0455 27.2567 32.4775 27.2567H17.1284Z" fill="#EF8A1E"/>
<path fill-rule="evenodd" clip-rule="evenodd" d="M34.7988 11.8291C35.9986 11.8291 36.6586 12.3662 36.6586 13.3807C36.7186 14.1565 36.1786 14.8129 35.4588 14.9324L37.0785 17.1404H35.8188L34.4389 14.9921H34.3189V17.1404H33.299V11.8291H34.7988ZM34.3189 14.2759H34.6189C35.2788 14.2759 35.5788 13.9775 35.5788 13.4403C35.5788 12.9629 35.2788 12.6646 34.6189 12.6646H34.3189V14.2759ZM29.7594 17.1404H32.639V16.2453H30.7793V14.8129H32.579V13.9177H30.7793V12.7242H32.639V11.8291H29.7594V17.1404ZM26.7598 15.4098L25.38 11.8291H24.3001L26.5198 17.2597H27.0597L29.2794 11.8291H28.1996L26.7598 15.4098ZM14.5813 14.5146C14.5813 16.0065 15.781 17.2597 17.2809 17.2597C17.7609 17.2597 18.1808 17.1404 18.6008 16.9614V15.7678C18.3008 16.1258 17.8809 16.3646 17.4009 16.3646C16.441 16.3646 15.6612 15.6485 15.6612 14.6936V14.5742C15.6012 13.6194 16.381 12.7839 17.3409 12.7242C17.8209 12.7242 18.3008 12.963 18.6008 13.321V12.1274C18.2408 11.8887 17.7609 11.8291 17.3409 11.8291C15.781 11.7097 14.5813 12.9629 14.5813 14.5146ZM12.7215 13.8582C12.1215 13.6194 11.9415 13.5 11.9415 13.2017C12.0015 12.8436 12.3015 12.5452 12.6615 12.6049C12.9614 12.6049 13.2614 12.7839 13.5014 13.0226L14.0413 12.3065C13.6213 11.9484 13.0814 11.7097 12.5415 11.7097C11.7016 11.65 10.9817 12.3065 10.9217 13.142V13.2017C10.9217 13.9177 11.2216 14.3355 12.1815 14.6339C12.4215 14.6936 12.6615 14.8129 12.9014 14.9324C13.0814 15.0516 13.2014 15.2307 13.2014 15.4694C13.2014 15.8871 12.8414 16.2453 12.4815 16.2453H12.4215C11.9415 16.2453 11.5216 15.9468 11.3416 15.5291L10.6817 16.1855C11.0417 16.842 11.7616 17.2002 12.4815 17.2002C13.4414 17.2597 14.2213 16.5437 14.2813 15.5888V15.4098C14.2213 14.6936 13.9213 14.3355 12.7215 13.8582ZM9.24187 17.1404H10.2617V11.8291H9.24187V17.1404ZM4.50244 11.8291H6.00227H6.30223C7.74205 11.8887 8.88192 13.0823 8.82192 14.5146C8.82192 15.2904 8.46196 16.0065 7.86204 16.5437C7.32211 16.9614 6.66219 17.2002 6.00227 17.1404H4.50244V11.8291ZM5.82228 16.2453C6.30221 16.305 6.84216 16.1258 7.20211 15.8275C7.56207 15.4694 7.74205 14.9921 7.74205 14.4549C7.74205 13.9775 7.56207 13.5 7.20211 13.142C6.84216 12.8436 6.30221 12.6646 5.82228 12.7242H5.52231V16.2453H5.82228Z" fill="#141414"/>
<path fill-rule="evenodd" clip-rule="evenodd" d="M21.6605 11.7059C20.1607 11.7059 18.9009 12.8995 18.9009 14.4511C18.9009 15.9431 20.1007 17.1963 21.6605 17.256C23.2203 17.3156 24.4202 16.0624 24.4802 14.5108C24.4202 12.9592 23.2203 11.7059 21.6605 11.7059Z" fill="#EF8A1E"/>
</svg>
