<svg width="29" height="22" viewBox="0 0 29 22" fill="none" xmlns="http://www.w3.org/2000/svg">
<path d="M22.9272 1.22437H5.24555C2.57935 1.22437 0.417969 3.38575 0.417969 6.05195V15.923C0.417969 18.5892 2.57935 20.7506 5.24555 20.7506H22.9272C25.5934 20.7506 27.7548 18.5892 27.7548 15.923V6.05195C27.7548 3.38575 25.5934 1.22437 22.9272 1.22437Z" fill="white"/>
<path fill-rule="evenodd" clip-rule="evenodd" d="M14.281 15.1833C13.3503 16.0199 12.143 16.5249 10.8238 16.5249C7.88033 16.5249 5.49414 14.0105 5.49414 10.9087C5.49414 7.80696 7.88033 5.29248 10.8238 5.29248C12.143 5.29248 13.3503 5.79752 14.281 6.63412C15.2116 5.79752 16.4189 5.29248 17.7381 5.29248C20.6816 5.29248 23.0678 7.80696 23.0678 10.9087C23.0678 14.0105 20.6816 16.5249 17.7381 16.5249C16.4189 16.5249 15.2116 16.0199 14.281 15.1833Z" fill="#ED0006"/>
<path fill-rule="evenodd" clip-rule="evenodd" d="M14.2808 15.1833C15.4267 14.1532 16.1534 12.6204 16.1534 10.9087C16.1534 9.19706 15.4267 7.66424 14.2808 6.63412C15.2115 5.79752 16.4187 5.29248 17.7379 5.29248C20.6815 5.29248 23.0676 7.80696 23.0676 10.9087C23.0676 14.0105 20.6815 16.5249 17.7379 16.5249C16.4187 16.5249 15.2115 16.0199 14.2808 15.1833Z" fill="#EF8A1E"/>
<path fill-rule="evenodd" clip-rule="evenodd" d="M14.2812 6.63428C15.4272 7.6644 16.1538 9.1972 16.1538 10.9088C16.1538 12.6205 15.4272 14.1533 14.2812 15.1834C13.1353 14.1533 12.4087 12.6205 12.4087 10.9088C12.4087 9.1972 13.1353 7.6644 14.2812 6.63428Z" fill="#EF8A1E"/>
</svg>
