<svg width="73" height="14" viewBox="0 0 73 14" fill="none" xmlns="http://www.w3.org/2000/svg">
<path d="M21.8176 1.57178L20.1574 5.21616L16.4468 5.79721L19.1322 8.63526L18.4973 12.6393L21.8176 10.7499L25.1379 12.6393L24.503 8.63526L27.1884 5.80116L23.4777 5.21616L21.8176 1.57178Z" fill="#EF8A1E"/>
<path d="M6.73635 1.57178L4.93787 5.21616L0.917969 5.79721L3.82716 8.63526L3.13939 12.6393L6.73635 10.7499L10.3333 12.6393L9.64554 8.63526L12.5547 5.80116L8.53482 5.21616L6.73635 1.57178Z" fill="#EF8A1E"/>
<path d="M35.9258 1.57178L34.1274 5.21616L30.1074 5.79721L33.0166 8.63526L32.3288 12.6393L35.9258 10.7499L39.5228 12.6393L38.835 8.63526L41.7442 5.80116L37.7242 5.21616L35.9258 1.57178Z" fill="#EF8A1E"/>
<path d="M51.0067 1.57178L49.0699 5.21616L44.7407 5.79721L47.8737 8.63526L47.1331 12.6393L51.0067 10.7499L54.8804 12.6393L54.1396 8.63526L57.2726 5.80116L52.9436 5.21616L51.0067 1.57178Z" fill="#EF8A1E"/>
<path d="M66.0879 1.57178L64.2895 5.21616L60.2695 5.79721L63.1787 8.63526L62.4909 12.6393L66.0879 10.7499L69.6849 12.6393L68.9971 8.63526L71.9063 5.80116L67.8864 5.21616L66.0879 1.57178Z" fill="#EF8A1E"/>
</svg>
