<svg width="107" height="21" viewBox="0 0 107 21" fill="none" xmlns="http://www.w3.org/2000/svg">
<path d="M31.9261 2.74524L29.4819 7.95151L24.019 8.78158L27.9726 12.8359L27.0379 18.556L31.9261 15.8569L36.8142 18.556L35.8796 12.8359L39.8331 8.78722L34.3701 7.95151L31.9261 2.74524Z" fill="#EF8A1E"/>
<path d="M9.72342 2.74524L7.07566 7.95151L1.15747 8.78158L5.44045 12.8359L4.42789 18.556L9.72342 15.8569L15.019 18.556L14.0064 12.8359L18.2894 8.78722L12.3712 7.95151L9.72342 2.74524Z" fill="#EF8A1E"/>
<path d="M52.6963 2.74524L50.0486 7.95151L44.1304 8.78158L48.4133 12.8359L47.4008 18.556L52.6963 15.8569L57.9919 18.556L56.9793 12.8359L61.2623 8.78722L55.344 7.95151L52.6963 2.74524Z" fill="#EF8A1E"/>
<path d="M74.8989 2.74524L72.0475 7.95151L65.6741 8.78158L70.2865 12.8359L69.1961 18.556L74.8989 15.8569L80.6019 18.556L79.5114 12.8359L84.1238 8.78722L77.7505 7.95151L74.8989 2.74524Z" fill="#EF8A1E"/>
<path d="M97.1018 2.74524L94.4541 7.95151L88.5359 8.78158L92.8189 12.8359L91.8063 18.556L97.1018 15.8569L102.397 18.556L101.385 12.8359L105.668 8.78722L99.7495 7.95151L97.1018 2.74524Z" fill="#EF8A1E"/>
</svg>
