<svg width="31" height="30" viewBox="0 0 31 30" fill="none" xmlns="http://www.w3.org/2000/svg">
<g clip-path="url(#clip0_1438_32)">
<path d="M9.59049 20.8503H17.2612C17.4166 20.8503 17.5657 20.7886 17.6756 20.6787C17.7854 20.5688 17.8472 20.4198 17.8472 20.2644C17.8472 20.109 17.7854 19.9599 17.6756 19.8501C17.5657 19.7402 17.4166 19.6784 17.2612 19.6784H10.096L8.23545 7.11816H22.8995C23.0549 7.11816 23.2039 7.05643 23.3138 6.94655C23.4237 6.83666 23.4854 6.68763 23.4854 6.53223C23.4854 6.37683 23.4237 6.22779 23.3138 6.11791C23.2039 6.00802 23.0549 5.94629 22.8995 5.94629H7.55635C7.47214 5.94629 7.38892 5.96444 7.31236 5.9995C7.2358 6.03457 7.1677 6.08572 7.1127 6.14948C7.05769 6.21324 7.01707 6.2881 6.99361 6.36897C6.97015 6.44985 6.96439 6.53483 6.97674 6.61812L9.01088 20.3502C9.03145 20.4892 9.10131 20.6162 9.2077 20.708C9.3141 20.7998 9.44995 20.8503 9.59049 20.8503ZM20.4651 20.8503H24.9341C25.0895 20.8503 25.2385 20.7886 25.3484 20.6787C25.4583 20.5688 25.52 20.4198 25.52 20.2644C25.52 20.109 25.4583 19.9599 25.3484 19.8501C25.2385 19.7402 25.0895 19.6784 24.9341 19.6784H20.4651C20.3097 19.6784 20.1607 19.7402 20.0508 19.8501C19.9409 19.9599 19.8792 20.109 19.8792 20.2644C19.8792 20.4198 19.9409 20.5688 20.0508 20.6787C20.1607 20.7886 20.3097 20.8503 20.4651 20.8503Z" fill="white" stroke="white" stroke-width="0.5"/>
<path d="M6.94238 20.8504H9.59082C9.74622 20.8504 9.89526 20.7887 10.0051 20.6788C10.115 20.5689 10.1768 20.4199 10.1768 20.2645C10.1768 20.1091 10.115 19.9601 10.0051 19.8502C9.89526 19.7403 9.74622 19.6786 9.59082 19.6786H6.94238C6.78698 19.6786 6.63795 19.7403 6.52806 19.8502C6.41818 19.9601 6.35644 20.1091 6.35644 20.2645C6.35644 20.4199 6.41818 20.5689 6.52806 20.6788C6.63795 20.7887 6.78698 20.8504 6.94238 20.8504ZM1.43856 20.8504H3.73859C3.89399 20.8504 4.04303 20.7887 4.15291 20.6788C4.2628 20.5689 4.32453 20.4199 4.32453 20.2645C4.32453 20.1091 4.2628 19.9601 4.15291 19.8502C4.04303 19.7403 3.89399 19.6786 3.73859 19.6786H1.96801L1.64668 16.5163C1.64504 16.5 1.64269 16.4838 1.63965 16.4676C1.61598 16.3411 1.62048 16.2109 1.65283 16.0863C1.68518 15.9617 1.74459 15.8457 1.82683 15.7466C1.90907 15.6476 2.01212 15.5679 2.12865 15.5132C2.24519 15.4584 2.37235 15.4301 2.50109 15.4301H3.18687C3.26883 15.4301 3.34987 15.4129 3.42477 15.3796C3.49966 15.3463 3.56674 15.2977 3.62168 15.2369C3.67661 15.176 3.71817 15.1044 3.74368 15.0265C3.76919 14.9486 3.77808 14.8662 3.76976 14.7847L3.50645 12.2022C3.50481 12.186 3.50246 12.1699 3.49953 12.1538C3.45921 11.9385 3.46683 11.7169 3.52187 11.5048C3.57691 11.2927 3.67801 11.0954 3.81797 10.9268C3.95794 10.7582 4.13333 10.6226 4.33168 10.5295C4.53002 10.4364 4.74644 10.3881 4.96555 10.3882H8.0402C8.1956 10.3882 8.34463 10.3265 8.45451 10.2166C8.5644 10.1067 8.62613 9.95765 8.62613 9.80225C8.62613 9.64685 8.5644 9.49781 8.45451 9.38793C8.34463 9.27804 8.1956 9.21631 8.0402 9.21631H4.96496C4.57589 9.21629 4.19154 9.30152 3.83895 9.466C3.48635 9.63048 3.17408 9.87021 2.9241 10.1683C2.67411 10.4665 2.49248 10.8158 2.39199 11.1916C2.29149 11.5675 2.27458 11.9608 2.34242 12.3439L2.53754 14.2582H2.50051C2.20184 14.2582 1.90679 14.3235 1.63603 14.4496C1.36526 14.5756 1.12535 14.7593 0.933087 14.9879C0.740829 15.2165 0.600879 15.4843 0.523049 15.7726C0.44522 16.061 0.431395 16.3629 0.482539 16.6571L0.855079 20.3238C0.869776 20.4683 0.937605 20.6022 1.04541 20.6995C1.15322 20.7968 1.29333 20.8506 1.43856 20.8504Z" fill="white" stroke="white" stroke-width="0.5"/>
<path d="M3.18683 15.4298H6.6339C6.7893 15.4298 6.93834 15.3681 7.04822 15.2582C7.15811 15.1483 7.21984 14.9993 7.21984 14.8439C7.21984 14.6885 7.15811 14.5395 7.04822 14.4296C6.93834 14.3197 6.7893 14.258 6.6339 14.258H3.18695C3.03155 14.258 2.88251 14.3197 2.77263 14.4296C2.66274 14.5395 2.60101 14.6885 2.60101 14.8439C2.60101 14.9993 2.66274 15.1483 2.77263 15.2582C2.88251 15.3681 3.03155 15.4298 3.18695 15.4298H3.18683ZM5.34039 22.4521C5.77312 22.4521 6.19614 22.3238 6.55596 22.0834C6.91577 21.843 7.19622 21.5013 7.36183 21.1015C7.52744 20.7017 7.57078 20.2618 7.48636 19.8374C7.40194 19.413 7.19356 19.0231 6.88758 18.7171C6.58158 18.4111 6.19173 18.2027 5.76731 18.1183C5.34289 18.0339 4.90297 18.0772 4.50318 18.2429C4.10339 18.4085 3.76169 18.6889 3.52129 19.0487C3.28089 19.4085 3.15259 19.8316 3.15261 20.2643C3.1533 20.8443 3.38401 21.4004 3.79415 21.8105C4.20429 22.2207 4.76036 22.4514 5.34039 22.4521ZM5.34039 19.2483C5.54134 19.2483 5.73779 19.3078 5.90488 19.4195C6.07198 19.5311 6.20223 19.6898 6.27915 19.8754C6.35606 20.0611 6.3762 20.2653 6.33701 20.4624C6.29782 20.6595 6.20106 20.8406 6.05898 20.9827C5.91689 21.1248 5.73585 21.2216 5.53876 21.2608C5.34167 21.3 5.13738 21.2799 4.95172 21.203C4.76606 21.1261 4.60737 20.9959 4.49573 20.8288C4.38408 20.6617 4.32449 20.4653 4.32449 20.2643C4.3248 19.9949 4.43192 19.7367 4.62237 19.5462C4.81282 19.3558 5.07104 19.2486 5.34039 19.2483ZM18.8632 22.4521C19.296 22.4521 19.719 22.3237 20.0788 22.0833C20.4386 21.8429 20.719 21.5012 20.8846 21.1014C21.0502 20.7016 21.0935 20.2617 21.0091 19.8373C20.9247 19.4129 20.7163 19.023 20.4103 18.7171C20.1043 18.4111 19.7144 18.2027 19.29 18.1183C18.8656 18.0339 18.4257 18.0773 18.0259 18.2429C17.6261 18.4085 17.2844 18.6889 17.044 19.0487C16.8036 19.4086 16.6753 19.8316 16.6753 20.2643C16.676 20.8443 16.9068 21.4004 17.3169 21.8106C17.7271 22.2207 18.2832 22.4514 18.8632 22.4521ZM18.8632 19.2483C19.0642 19.2483 19.2606 19.3079 19.4277 19.4195C19.5948 19.5312 19.725 19.6898 19.8019 19.8755C19.8788 20.0611 19.8989 20.2654 19.8597 20.4625C19.8205 20.6596 19.7238 20.8406 19.5817 20.9827C19.4396 21.1248 19.2585 21.2216 19.0615 21.2608C18.8644 21.3 18.6601 21.2799 18.4744 21.203C18.2888 21.1261 18.1301 20.9958 18.0185 20.8288C17.9068 20.6617 17.8472 20.4652 17.8472 20.2643C17.8475 19.9949 17.9547 19.7367 18.1452 19.5462C18.3356 19.3557 18.5939 19.2486 18.8632 19.2483ZM18.5044 10.1104H26.1507C26.3061 10.1104 26.4551 10.0486 26.565 9.93873C26.6749 9.82885 26.7366 9.67981 26.7366 9.52441C26.7366 9.36901 26.6749 9.21998 26.565 9.11009C26.4551 9.00021 26.3061 8.93848 26.1507 8.93848H18.5044C18.4275 8.93848 18.3513 8.95363 18.2802 8.98308C18.2091 9.01252 18.1445 9.05568 18.0901 9.11009C18.0357 9.1645 17.9925 9.2291 17.9631 9.30018C17.9336 9.37127 17.9185 9.44747 17.9185 9.52441C17.9185 9.60136 17.9336 9.67755 17.9631 9.74864C17.9925 9.81973 18.0357 9.88432 18.0901 9.93873C18.1445 9.99314 18.2091 10.0363 18.2802 10.0657C18.3513 10.0952 18.4275 10.1104 18.5044 10.1104ZM22.3275 13.9841H28.1575C28.3129 13.9841 28.4619 13.9224 28.5718 13.8125C28.6817 13.7026 28.7434 13.5536 28.7434 13.3982C28.7434 13.2428 28.6817 13.0937 28.5718 12.9838C28.4619 12.874 28.3129 12.8122 28.1575 12.8122H22.3275C22.1721 12.8122 22.0231 12.874 21.9132 12.9838C21.8033 13.0937 21.7416 13.2428 21.7416 13.3982C21.7416 13.5536 21.8033 13.7026 21.9132 13.8125C22.0231 13.9224 22.1721 13.9841 22.3275 13.9841ZM25.578 17.8579H29.7842C29.9396 17.8579 30.0886 17.7961 30.1985 17.6862C30.3084 17.5764 30.3701 17.4273 30.3701 17.2719C30.3701 17.1165 30.3084 16.9675 30.1985 16.8576C30.0886 16.7477 29.9396 16.686 29.7842 16.686H25.578C25.4226 16.686 25.2735 16.7477 25.1636 16.8576C25.0538 16.9675 24.992 17.1165 24.992 17.2719C24.992 17.4273 25.0538 17.5764 25.1636 17.6862C25.2735 17.7961 25.4226 17.8579 25.578 17.8579Z" fill="white" stroke="white" stroke-width="0.5"/>
</g>
<defs>
<clipPath id="clip0_1438_32">
<rect width="30" height="30" fill="white" transform="matrix(-1 0 0 1 30.4111 0)"/>
</clipPath>
</defs>
</svg>
